<svg width="8291" height="4448" viewBox="0 0 8291 4448" fill="none" xmlns="http://www.w3.org/2000/svg">
<rect width="8291" height="4448" fill="#060B19"/>
<path d="M874.947 2033V2316.04C874.947 2350.61 882.877 2376.84 898.737 2394.73C915.004 2412.22 938.794 2420.96 970.107 2420.96C1001.42 2420.96 1025.01 2412.22 1040.87 2394.73C1057.13 2376.84 1065.27 2350.61 1065.27 2316.04V2033H1116.51V2316.04C1116.51 2365.65 1103.49 2403.47 1077.47 2429.5C1051.44 2455.53 1015.65 2468.54 970.107 2468.54C924.561 2468.54 888.774 2455.53 862.747 2429.5C836.721 2403.47 823.707 2365.65 823.707 2316.04V2033H874.947ZM1257.6 2460H1210.02V2157.44H1257.6V2208.68H1264.92C1283.63 2168.83 1316.16 2148.9 1362.52 2148.9C1397.5 2148.9 1425.35 2159.88 1446.09 2181.84C1466.83 2203.39 1477.2 2235.93 1477.2 2279.44V2460H1429.62V2289.2C1429.62 2257.48 1422.51 2233.69 1408.27 2217.83C1394.04 2201.97 1374.72 2194.04 1350.32 2194.04C1321.45 2194.04 1298.68 2204 1282 2223.93C1265.74 2243.45 1257.6 2269.68 1257.6 2302.62V2460ZM1817.77 2413.64H1810.45C1805.57 2422.99 1799.27 2431.13 1791.54 2438.04C1784.22 2444.95 1776.09 2450.65 1767.14 2455.12C1758.6 2459.59 1749.45 2462.85 1739.69 2464.88C1729.93 2467.32 1720.58 2468.54 1711.63 2468.54C1691.3 2468.54 1672.39 2465.08 1654.9 2458.17C1637.41 2451.26 1621.96 2441.29 1608.54 2428.28C1595.53 2415.27 1585.16 2399.2 1577.43 2380.09C1570.11 2360.57 1566.45 2338.41 1566.45 2313.6V2303.84C1566.45 2279.44 1570.31 2257.68 1578.04 2238.57C1585.77 2219.05 1596.14 2202.78 1609.15 2189.77C1622.16 2176.35 1637.41 2166.18 1654.9 2159.27C1672.39 2152.36 1690.89 2148.9 1710.41 2148.9C1731.15 2148.9 1750.47 2153.58 1768.36 2162.93C1786.66 2171.88 1800.69 2185.91 1810.45 2205.02H1817.77V2033H1865.35V2460H1817.77V2413.64ZM1716.51 2423.4C1730.74 2423.4 1743.96 2420.76 1756.16 2415.47C1768.36 2410.18 1778.93 2402.66 1787.88 2392.9C1797.23 2383.14 1804.55 2371.55 1809.84 2358.13C1815.13 2344.3 1817.77 2329.05 1817.77 2312.38V2305.06C1817.77 2288.79 1815.13 2273.95 1809.84 2260.53C1804.55 2246.7 1797.23 2234.91 1787.88 2225.15C1778.93 2215.39 1768.16 2207.87 1755.55 2202.58C1743.35 2196.89 1730.34 2194.04 1716.51 2194.04C1702.28 2194.04 1688.86 2196.68 1676.25 2201.97C1664.05 2207.26 1653.27 2214.78 1643.92 2224.54C1634.97 2234.3 1627.86 2245.89 1622.57 2259.31C1617.69 2272.73 1615.25 2287.57 1615.25 2303.84V2313.6C1615.25 2330.68 1617.69 2345.93 1622.57 2359.35C1627.86 2372.77 1634.97 2384.36 1643.92 2394.12C1653.27 2403.47 1664.05 2410.79 1676.25 2416.08C1688.45 2420.96 1701.87 2423.4 1716.51 2423.4ZM1991.8 2323.36C1993.02 2353.45 2002.38 2377.65 2019.86 2395.95C2037.35 2414.25 2061.75 2423.4 2093.06 2423.4C2107.3 2423.4 2119.7 2421.77 2130.27 2418.52C2140.85 2415.27 2149.79 2410.79 2157.11 2405.1C2164.84 2399.41 2170.94 2392.9 2175.41 2385.58C2180.29 2377.85 2184.16 2369.72 2187 2361.18L2232.14 2373.38C2223.6 2401.44 2207.74 2424.42 2184.56 2442.31C2161.79 2459.8 2130.88 2468.54 2091.84 2468.54C2070.29 2468.54 2050.36 2464.88 2032.06 2457.56C2014.17 2449.83 1998.72 2439.06 1985.7 2425.23C1972.69 2411.4 1962.52 2394.93 1955.2 2375.82C1947.88 2356.71 1944.22 2335.56 1944.22 2312.38V2297.74C1944.22 2276.59 1947.88 2256.87 1955.2 2238.57C1962.93 2220.27 1973.5 2204.61 1986.92 2191.6C2000.34 2178.18 2016 2167.81 2033.89 2160.49C2052.19 2152.76 2071.92 2148.9 2093.06 2148.9C2117.87 2148.9 2139.22 2153.58 2157.11 2162.93C2175.41 2171.88 2190.26 2183.06 2201.64 2196.48C2213.44 2209.9 2221.98 2224.54 2227.26 2240.4C2232.96 2256.26 2235.8 2270.9 2235.8 2284.32V2323.36H1991.8ZM2093.06 2194.04C2079.64 2194.04 2067.04 2196.28 2055.24 2200.75C2043.86 2204.82 2033.69 2210.71 2024.74 2218.44C2016.2 2226.17 2009.09 2235.32 2003.39 2245.89C1998.11 2256.06 1994.65 2267.24 1993.02 2279.44H2188.22C2187.41 2266.43 2184.16 2254.63 2178.46 2244.06C2173.18 2233.49 2166.06 2224.54 2157.11 2217.22C2148.57 2209.9 2138.61 2204.21 2127.22 2200.14C2116.24 2196.07 2104.86 2194.04 2093.06 2194.04ZM2313.46 2157.44H2423.26V2197.7H2430.58C2438.31 2181.03 2449.29 2168.83 2463.52 2161.1C2477.75 2152.97 2494.02 2148.9 2512.32 2148.9C2542.82 2148.9 2567.42 2158.86 2586.13 2178.79C2604.84 2198.72 2614.8 2227.79 2616.02 2266.02L2566 2273.34C2566 2245.28 2559.29 2225.15 2545.87 2212.95C2532.45 2200.34 2515.98 2194.04 2496.46 2194.04C2483.85 2194.04 2472.87 2196.48 2463.52 2201.36C2454.57 2206.24 2447.05 2212.95 2440.95 2221.49C2434.85 2230.03 2430.38 2239.99 2427.53 2251.38C2424.68 2262.77 2423.26 2274.97 2423.26 2287.98V2416.08H2500.12V2460H2306.14V2416.08H2375.68V2201.36H2313.46V2157.44ZM3213.58 2420.96C3231.07 2420.96 3245.91 2418.11 3258.11 2412.42C3270.72 2406.32 3280.89 2398.39 3288.61 2388.63C3296.75 2378.46 3302.64 2367.08 3306.3 2354.47C3310.37 2341.46 3312.4 2327.83 3312.4 2313.6V2306.28H3363.64V2313.6C3363.64 2335.15 3360.39 2355.49 3353.88 2374.6C3347.38 2393.31 3337.82 2409.78 3325.21 2424.01C3312.61 2437.84 3296.95 2448.82 3278.24 2456.95C3259.54 2464.68 3237.98 2468.54 3213.58 2468.54C3166.41 2468.54 3129.61 2453.7 3103.17 2424.01C3076.74 2394.32 3063.52 2351.01 3063.52 2294.08V2198.92C3063.52 2143.61 3076.74 2100.71 3103.17 2070.21C3129.61 2039.71 3166.41 2024.46 3213.58 2024.46C3237.98 2024.46 3259.54 2028.53 3278.24 2036.66C3296.95 2044.39 3312.61 2055.37 3325.21 2069.6C3337.82 2083.43 3347.38 2099.9 3353.88 2119.01C3360.39 2137.72 3363.64 2157.85 3363.64 2179.4V2186.72H3312.4V2179.4C3312 2165.57 3309.76 2152.15 3305.69 2139.14C3302.03 2126.13 3296.14 2114.74 3288 2104.98C3280.28 2094.81 3270.31 2086.88 3258.11 2081.19C3245.91 2075.09 3231.07 2072.04 3213.58 2072.04C3180.64 2072.04 3155.84 2084.04 3139.16 2108.03C3122.9 2132.02 3114.76 2163.54 3114.76 2202.58V2290.42C3114.76 2332.31 3122.9 2364.64 3139.16 2387.41C3155.84 2409.78 3180.64 2420.96 3213.58 2420.96ZM3736.54 2312.38C3736.54 2337.59 3732.27 2359.96 3723.73 2379.48C3715.59 2398.59 3704.61 2414.86 3690.79 2428.28C3676.96 2441.29 3660.69 2451.26 3641.99 2458.17C3623.69 2465.08 3604.57 2468.54 3584.65 2468.54C3564.31 2468.54 3545 2465.08 3526.7 2458.17C3508.4 2451.26 3492.33 2441.29 3478.51 2428.28C3464.68 2414.86 3453.5 2398.59 3444.96 2379.48C3436.82 2359.96 3432.76 2337.59 3432.76 2312.38V2305.06C3432.76 2280.25 3436.82 2258.29 3444.96 2239.18C3453.5 2219.66 3464.68 2203.19 3478.51 2189.77C3492.74 2176.35 3509.01 2166.18 3527.31 2159.27C3545.61 2152.36 3564.72 2148.9 3584.65 2148.9C3604.57 2148.9 3623.69 2152.36 3641.99 2159.27C3660.29 2166.18 3676.35 2176.35 3690.18 2189.77C3704.41 2203.19 3715.59 2219.66 3723.73 2239.18C3732.27 2258.29 3736.54 2280.25 3736.54 2305.06V2312.38ZM3584.65 2423.4C3599.29 2423.4 3612.71 2420.96 3624.91 2416.08C3637.51 2410.79 3648.49 2403.27 3657.85 2393.51C3667.2 2383.75 3674.52 2372.16 3679.81 2358.74C3685.09 2344.91 3687.74 2329.46 3687.74 2312.38V2305.06C3687.74 2288.79 3685.09 2273.95 3679.81 2260.53C3674.52 2246.7 3667.2 2234.91 3657.85 2225.15C3648.49 2215.39 3637.51 2207.87 3624.91 2202.58C3612.3 2196.89 3598.88 2194.04 3584.65 2194.04C3570.41 2194.04 3556.99 2196.89 3544.39 2202.58C3531.78 2207.87 3520.8 2215.39 3511.45 2225.15C3502.09 2234.91 3494.77 2246.7 3489.49 2260.53C3484.2 2273.95 3481.56 2288.79 3481.56 2305.06V2312.38C3481.56 2329.46 3484.2 2344.91 3489.49 2358.74C3494.77 2372.16 3502.09 2383.75 3511.45 2393.51C3520.8 2403.27 3531.58 2410.79 3543.78 2416.08C3556.38 2420.96 3570.01 2423.4 3584.65 2423.4ZM3872.14 2460H3824.56V2157.44H3872.14V2208.68H3879.46C3898.17 2168.83 3930.7 2148.9 3977.06 2148.9C4012.04 2148.9 4039.89 2159.88 4060.63 2181.84C4081.37 2203.39 4091.74 2235.93 4091.74 2279.44V2460H4044.16V2289.2C4044.16 2257.48 4037.05 2233.69 4022.81 2217.83C4008.58 2201.97 3989.26 2194.04 3964.86 2194.04C3935.99 2194.04 3913.22 2204 3896.54 2223.93C3880.28 2243.45 3872.14 2269.68 3872.14 2302.62V2460ZM4260.9 2235.52C4260.9 2250.16 4267 2261.34 4279.2 2269.07C4291.81 2276.8 4314.58 2281.88 4347.52 2284.32C4382.9 2287.17 4409.74 2295.71 4428.04 2309.94C4446.75 2323.77 4456.1 2344.1 4456.1 2370.94V2374.6C4456.1 2389.24 4453.05 2402.46 4446.95 2414.25C4441.26 2425.64 4433.12 2435.4 4422.55 2443.53C4412.38 2451.66 4399.78 2457.76 4384.73 2461.83C4370.09 2466.3 4354.03 2468.54 4336.54 2468.54C4312.95 2468.54 4292.62 2465.49 4275.54 2459.39C4258.87 2452.88 4244.84 2444.55 4233.45 2434.38C4222.47 2423.81 4214.13 2412.01 4208.44 2399C4202.75 2385.58 4199.49 2372.16 4198.68 2358.74L4243.82 2347.76C4245.85 2370.94 4254.8 2389.65 4270.66 2403.88C4286.52 2417.71 4307.67 2424.62 4334.1 2424.62C4356.47 2424.62 4374.36 2420.35 4387.78 2411.81C4401.61 2402.86 4408.52 2390.46 4408.52 2374.6C4408.52 2357.52 4401.81 2345.32 4388.39 2338C4374.97 2330.68 4353.21 2326 4323.12 2323.97C4288.15 2321.53 4261.31 2313.4 4242.6 2299.57C4223.89 2285.74 4214.54 2265.61 4214.54 2239.18V2235.52C4214.54 2221.29 4217.59 2208.88 4223.69 2198.31C4229.79 2187.33 4237.92 2178.18 4248.09 2170.86C4258.66 2163.54 4270.46 2158.05 4283.47 2154.39C4296.48 2150.73 4310.11 2148.9 4324.34 2148.9C4344.27 2148.9 4361.75 2151.75 4376.8 2157.44C4391.85 2162.73 4404.45 2169.84 4414.62 2178.79C4424.79 2187.33 4432.51 2197.29 4437.8 2208.68C4443.49 2220.07 4447.15 2231.45 4448.78 2242.84L4403.64 2253.82C4401.61 2234.3 4393.68 2219.05 4379.85 2208.07C4366.43 2197.09 4348.74 2191.6 4326.78 2191.6C4318.24 2191.6 4309.9 2192.62 4301.77 2194.65C4294.04 2196.28 4287.13 2198.92 4281.03 2202.58C4274.93 2206.24 4270.05 2210.92 4266.39 2216.61C4262.73 2221.9 4260.9 2228.2 4260.9 2235.52ZM4561.21 2157.44H4656.37V2033H4703.95V2157.44H4821.07V2201.36H4703.95V2397.78C4703.95 2409.98 4709.44 2416.08 4720.42 2416.08H4806.43V2460H4703.34C4689.51 2460 4678.12 2455.53 4669.18 2446.58C4660.64 2437.63 4656.37 2426.25 4656.37 2412.42V2201.36H4561.21V2157.44ZM4928 2157.44H5037.8V2197.7H5045.12C5052.85 2181.03 5063.83 2168.83 5078.06 2161.1C5092.3 2152.97 5108.56 2148.9 5126.86 2148.9C5157.36 2148.9 5181.97 2158.86 5200.67 2178.79C5219.38 2198.72 5229.34 2227.79 5230.56 2266.02L5180.54 2273.34C5180.54 2245.28 5173.83 2225.15 5160.41 2212.95C5146.99 2200.34 5130.52 2194.04 5111 2194.04C5098.4 2194.04 5087.42 2196.48 5078.06 2201.36C5069.12 2206.24 5061.59 2212.95 5055.49 2221.49C5049.39 2230.03 5044.92 2239.99 5042.07 2251.38C5039.23 2262.77 5037.8 2274.97 5037.8 2287.98V2416.08H5114.66V2460H4920.68V2416.08H4990.22V2201.36H4928V2157.44ZM5534.53 2157.44H5582.11V2460H5534.53V2405.1H5527.21C5517.45 2424.62 5504.64 2440.07 5488.78 2451.46C5472.92 2462.85 5452.79 2468.54 5428.39 2468.54C5411.71 2468.54 5396.26 2465.69 5382.03 2460C5368.2 2454.71 5356.2 2446.58 5346.04 2435.6C5336.28 2424.62 5328.55 2411 5322.86 2394.73C5317.57 2378.46 5314.93 2359.55 5314.93 2338V2157.44H5362.51V2331.9C5362.51 2363.62 5369.01 2386.8 5382.03 2401.44C5395.04 2416.08 5414.97 2423.4 5441.81 2423.4C5470.68 2423.4 5493.25 2413.64 5509.52 2394.12C5526.19 2374.19 5534.53 2347.76 5534.53 2314.82V2157.44ZM5975.13 2352.64C5971.88 2369.31 5966.19 2384.77 5958.05 2399C5950.33 2413.23 5940.36 2425.64 5928.16 2436.21C5915.96 2446.38 5901.73 2454.31 5885.46 2460C5869.2 2465.69 5851.1 2468.54 5831.17 2468.54C5810.03 2468.54 5789.9 2465.08 5770.78 2458.17C5752.08 2451.26 5735.61 2441.29 5721.37 2428.28C5707.14 2414.86 5695.75 2398.59 5687.21 2379.48C5679.08 2360.37 5675.01 2338.41 5675.01 2313.6V2306.28C5675.01 2281.88 5679.08 2259.92 5687.21 2240.4C5695.75 2220.88 5707.14 2204.41 5721.37 2190.99C5735.61 2177.57 5752.08 2167.2 5770.78 2159.88C5789.9 2152.56 5810.03 2148.9 5831.17 2148.9C5850.29 2148.9 5867.98 2151.75 5884.24 2157.44C5900.51 2163.13 5914.74 2171.27 5926.94 2181.84C5939.55 2192.01 5949.72 2204.21 5957.44 2218.44C5965.58 2232.67 5971.07 2248.13 5973.91 2264.8L5926.33 2275.78C5925.11 2265.21 5922.06 2255.04 5917.18 2245.28C5912.71 2235.11 5906.41 2226.37 5898.27 2219.05C5890.55 2211.32 5880.99 2205.22 5869.6 2200.75C5858.22 2196.28 5845 2194.04 5829.95 2194.04C5815.31 2194.04 5801.49 2196.89 5788.47 2202.58C5775.87 2207.87 5764.68 2215.59 5754.92 2225.76C5745.16 2235.52 5737.44 2247.31 5731.74 2261.14C5726.46 2274.97 5723.81 2290.01 5723.81 2306.28V2313.6C5723.81 2330.68 5726.46 2346.13 5731.74 2359.96C5737.44 2373.38 5745.16 2384.77 5754.92 2394.12C5764.68 2403.47 5776.07 2410.79 5789.08 2416.08C5802.1 2420.96 5816.13 2423.4 5831.17 2423.4C5846.22 2423.4 5859.23 2421.16 5870.21 2416.69C5881.6 2411.81 5891.16 2405.71 5898.88 2398.39C5907.02 2390.66 5913.32 2381.92 5917.79 2372.16C5922.67 2362.4 5925.93 2352.23 5927.55 2341.66L5975.13 2352.64ZM6055.23 2157.44H6150.39V2033H6197.97V2157.44H6315.09V2201.36H6197.97V2397.78C6197.97 2409.98 6203.46 2416.08 6214.44 2416.08H6300.45V2460H6197.36C6183.53 2460 6172.15 2455.53 6163.2 2446.58C6154.66 2437.63 6150.39 2426.25 6150.39 2412.42V2201.36H6055.23V2157.44ZM6533.05 2067.16C6533.05 2055.37 6537.11 2045.4 6545.25 2037.27C6553.79 2028.73 6563.95 2024.46 6575.75 2024.46C6587.54 2024.46 6597.5 2028.73 6605.64 2037.27C6614.18 2045.4 6618.45 2055.37 6618.45 2067.16C6618.45 2078.95 6614.18 2089.12 6605.64 2097.66C6597.5 2105.79 6587.54 2109.86 6575.75 2109.86C6563.95 2109.86 6553.79 2105.79 6545.25 2097.66C6537.11 2089.12 6533.05 2078.95 6533.05 2067.16ZM6446.43 2416.08H6552.57V2201.36H6457.41V2157.44H6600.15V2416.08H6698.97V2460H6446.43V2416.08ZM7098.09 2312.38C7098.09 2337.59 7093.82 2359.96 7085.28 2379.48C7077.15 2398.59 7066.17 2414.86 7052.34 2428.28C7038.51 2441.29 7022.25 2451.26 7003.54 2458.17C6985.24 2465.08 6966.13 2468.54 6946.2 2468.54C6925.87 2468.54 6906.55 2465.08 6888.25 2458.17C6869.95 2451.26 6853.89 2441.29 6840.06 2428.28C6826.23 2414.86 6815.05 2398.59 6806.51 2379.48C6798.38 2359.96 6794.31 2337.59 6794.31 2312.38V2305.06C6794.31 2280.25 6798.38 2258.29 6806.51 2239.18C6815.05 2219.66 6826.23 2203.19 6840.06 2189.77C6854.29 2176.35 6870.56 2166.18 6888.86 2159.27C6907.16 2152.36 6926.27 2148.9 6946.2 2148.9C6966.13 2148.9 6985.24 2152.36 7003.54 2159.27C7021.84 2166.18 7037.9 2176.35 7051.73 2189.77C7065.96 2203.19 7077.15 2219.66 7085.28 2239.18C7093.82 2258.29 7098.09 2280.25 7098.09 2305.06V2312.38ZM6946.2 2423.4C6960.84 2423.4 6974.26 2420.96 6986.46 2416.08C6999.07 2410.79 7010.05 2403.27 7019.4 2393.51C7028.75 2383.75 7036.07 2372.16 7041.36 2358.74C7046.65 2344.91 7049.29 2329.46 7049.29 2312.38V2305.06C7049.29 2288.79 7046.65 2273.95 7041.36 2260.53C7036.07 2246.7 7028.75 2234.91 7019.4 2225.15C7010.05 2215.39 6999.07 2207.87 6986.46 2202.58C6973.85 2196.89 6960.43 2194.04 6946.2 2194.04C6931.97 2194.04 6918.55 2196.89 6905.94 2202.58C6893.33 2207.87 6882.35 2215.39 6873 2225.15C6863.65 2234.91 6856.33 2246.7 6851.04 2260.53C6845.75 2273.95 6843.11 2288.79 6843.11 2305.06V2312.38C6843.11 2329.46 6845.75 2344.91 6851.04 2358.74C6856.33 2372.16 6863.65 2383.75 6873 2393.51C6882.35 2403.27 6893.13 2410.79 6905.33 2416.08C6917.94 2420.96 6931.56 2423.4 6946.2 2423.4ZM7233.7 2460H7186.12V2157.44H7233.7V2208.68H7241.02C7259.72 2168.83 7292.26 2148.9 7338.62 2148.9C7373.59 2148.9 7401.45 2159.88 7422.19 2181.84C7442.93 2203.39 7453.3 2235.93 7453.3 2279.44V2460H7405.72V2289.2C7405.72 2257.48 7398.6 2233.69 7384.37 2217.83C7370.13 2201.97 7350.82 2194.04 7326.42 2194.04C7297.54 2194.04 7274.77 2204 7258.1 2223.93C7241.83 2243.45 7233.7 2269.68 7233.7 2302.62V2460Z" fill="#7E57C2"/>
</svg>
