<svg width="8291" height="4448" viewBox="0 0 8291 4448" fill="none" xmlns="http://www.w3.org/2000/svg">
<rect width="8291" height="4448" fill="#060B19"/>
<path d="M2392.03 1853.62C2391.62 1847.11 2391.42 1837.35 2391.42 1824.34V1801.16C2391.42 1785.71 2391.01 1774.12 2390.2 1766.39C2389.39 1759.88 2388.98 1743.01 2388.98 1715.76C2388.98 1706 2391.83 1698.48 2397.52 1693.19C2403.62 1687.5 2411.75 1684.65 2421.92 1684.65C2434.93 1684.65 2443.68 1687.5 2448.15 1693.19C2452.62 1698.88 2454.86 1708.24 2454.86 1721.25V1744.43L2454.25 1811.53C2453.84 1824.54 2453.64 1844.06 2453.64 1870.09L2454.25 1920.11C2454.66 1927.84 2454.86 1938.61 2454.86 1952.44C2454.86 1963.42 2455.27 1979.08 2456.08 1999.41C2456.89 2018.12 2457.3 2032.15 2457.3 2041.5C2457.3 2049.23 2455.06 2056.34 2450.59 2062.85C2446.52 2069.36 2440.83 2072.61 2433.51 2072.61C2405.04 2072.61 2390.81 2063.05 2390.81 2043.94C2390.81 2033.37 2391.22 2021.57 2392.03 2008.56C2392.84 1999.21 2393.25 1984.97 2393.25 1965.86C2393.25 1952.44 2392.84 1933.12 2392.03 1907.91C2372.92 1909.54 2339.98 1910.35 2293.21 1910.35C2263.93 1910.35 2241.16 1910.35 2224.89 1910.35C2208.62 1909.94 2196.83 1908.93 2189.51 1907.3L2188.9 1977.45C2188.9 1981.92 2189.92 1993.92 2191.95 2013.44C2193.98 2026.45 2195 2037.84 2195 2047.6C2195 2053.7 2191.34 2059.6 2184.02 2065.29C2177.11 2070.58 2170.6 2073.22 2164.5 2073.22C2149.86 2073.22 2139.9 2069.76 2134.61 2062.85C2129.32 2055.53 2126.68 2044.55 2126.68 2029.91L2126.07 1981.72C2125.66 1976.03 2125.46 1968.1 2125.46 1957.93C2125.46 1942.88 2125.05 1922.35 2124.24 1896.32C2123.43 1872.73 2123.02 1855.65 2123.02 1845.08C2123.02 1829.22 2123.43 1807.06 2124.24 1778.59C2125.05 1751.75 2125.46 1731.82 2125.46 1718.81C2125.46 1705.8 2128.71 1697.05 2135.22 1692.58C2141.73 1688.11 2149.05 1685.87 2157.18 1685.87C2179.95 1685.87 2191.34 1693.39 2191.34 1708.44C2191.34 1735.28 2190.73 1760.9 2189.51 1785.3C2188.7 1816.21 2188.29 1838.78 2188.29 1853.01C2200.08 1855.86 2212.49 1857.69 2225.5 1858.5C2238.51 1859.31 2256.81 1859.72 2280.4 1859.72C2328.39 1859.72 2365.6 1857.69 2392.03 1853.62ZM2528.91 1942.68C2528.91 1927.23 2531.75 1911.77 2537.45 1896.32C2543.14 1880.46 2550.66 1866.02 2560.02 1853.01C2569.37 1840 2584.21 1829.42 2604.55 1821.29C2624.88 1812.75 2642.98 1808.48 2658.84 1808.48C2675.1 1808.48 2691.57 1810.72 2708.25 1815.19C2725.33 1819.66 2737.12 1826.58 2743.63 1835.93C2758.67 1857.08 2766.2 1877.82 2766.2 1898.15C2766.2 1909.13 2763.76 1918.48 2758.88 1926.21C2754.4 1933.94 2747.9 1942.27 2739.36 1951.22C2732.44 1958.54 2721.46 1963.42 2706.42 1965.86C2691.78 1968.3 2677.14 1969.52 2662.5 1969.52C2653.14 1969.52 2641.76 1968.71 2628.34 1967.08C2614.92 1965.05 2601.9 1962.61 2589.3 1959.76C2590.11 1967.89 2592.14 1975.82 2595.4 1983.55C2598.65 1991.28 2602.51 1997.17 2606.99 2001.24C2615.12 2008.97 2623.46 2013.85 2632 2015.88C2640.94 2017.91 2652.33 2018.93 2666.16 2018.93C2680.8 2018.93 2694.42 2016.49 2707.03 2011.61C2717.19 2007.95 2725.53 2006.12 2732.04 2006.12C2739.76 2006.12 2745.66 2008.56 2749.73 2013.44C2753.79 2017.91 2755.83 2023.81 2755.83 2031.13C2755.83 2041.3 2749.93 2049.63 2738.14 2056.14C2726.34 2062.65 2712.72 2067.53 2697.27 2070.78C2682.22 2073.63 2670.02 2075.05 2660.67 2075.05C2641.55 2075.05 2623.05 2071.59 2605.16 2064.68C2587.26 2057.77 2572.42 2048.01 2560.63 2035.4C2550.87 2024.01 2543.14 2010.39 2537.45 1994.53C2531.75 1978.26 2528.91 1960.98 2528.91 1942.68ZM2661.89 1860.33C2652.94 1860.33 2643.99 1862.16 2635.05 1865.82C2626.1 1869.07 2618.78 1873.75 2613.09 1879.85C2605.77 1887.58 2600.68 1893.88 2597.84 1898.76C2595.4 1903.23 2593.77 1909.54 2592.96 1917.67C2603.12 1920.92 2624.27 1922.55 2656.4 1922.55C2673.88 1922.55 2687.3 1919.91 2696.66 1914.62C2706.42 1909.33 2711.3 1902.42 2711.3 1893.88C2711.3 1885.34 2706.01 1877.61 2695.44 1870.7C2684.86 1863.79 2673.68 1860.33 2661.89 1860.33ZM2892.81 1977.45C2892.81 1992.9 2895.04 2004.9 2899.52 2013.44C2904.4 2021.57 2910.5 2025.64 2917.82 2025.64C2921.88 2025.64 2925.75 2025.44 2929.41 2025.03C2933.07 2024.22 2936.73 2023.81 2940.39 2023.81C2944.45 2023.81 2947.91 2025.84 2950.76 2029.91C2954.01 2033.98 2955.64 2038.45 2955.64 2043.33C2955.64 2053.09 2950.96 2060.82 2941.61 2066.51C2932.66 2071.8 2920.46 2074.44 2905.01 2074.44C2894.03 2074.44 2882.84 2071.19 2871.46 2064.68C2860.48 2057.77 2851.33 2047.19 2844.01 2032.96C2836.69 2018.32 2833.03 2000.22 2833.03 1978.67C2833.03 1932.31 2833.84 1893.07 2835.47 1860.94C2837.5 1822.71 2838.52 1774.52 2838.52 1716.37C2838.52 1698.07 2839.53 1685.26 2841.57 1677.94C2844.01 1672.25 2847.87 1667.98 2853.16 1665.13C2858.85 1661.88 2864.75 1660.25 2870.85 1660.25C2876.95 1660.25 2882.23 1661.27 2886.71 1663.3C2891.59 1665.33 2894.84 1668.59 2896.47 1673.06C2898.09 1677.94 2899.11 1682.82 2899.52 1687.7C2900.33 1692.17 2900.74 1698.68 2900.74 1707.22C2900.74 1723.89 2900.13 1739.96 2898.91 1755.41C2898.09 1774.12 2897.69 1787.74 2897.69 1796.28C2894.43 1867.85 2892.81 1928.24 2892.81 1977.45ZM2990.53 1863.99C2986.47 1858.3 2983.62 1853.42 2981.99 1849.35C2980.37 1845.28 2979.55 1840.2 2979.55 1834.1C2979.55 1827.59 2982.2 1822.1 2987.48 1817.63C2993.18 1813.16 3000.29 1810.92 3008.83 1810.92C3017.37 1810.92 3025.91 1814.17 3034.45 1820.68C3042.99 1826.78 3049.91 1834.71 3055.19 1844.47C3063.73 1832.27 3075.32 1823.53 3089.96 1818.24C3104.6 1812.95 3120.46 1810.31 3137.54 1810.31C3156.25 1810.31 3173.53 1816 3189.39 1827.39C3205.66 1838.78 3218.47 1853.42 3227.82 1871.31C3237.18 1889.2 3241.85 1907.1 3241.85 1924.99C3241.85 1942.48 3240.02 1958.13 3236.36 1971.96C3232.7 1985.38 3226.2 1999 3216.84 2012.83C3206.27 2027.47 3192.04 2039.47 3174.14 2048.82C3156.66 2058.17 3135.71 2062.85 3111.31 2062.85C3104.81 2062.85 3096.88 2061.22 3087.52 2057.97C3078.17 2054.31 3070.44 2050.45 3064.34 2046.38C3061.5 2074.03 3060.07 2098.03 3060.07 2118.36C3060.07 2130.56 3060.68 2142.15 3061.9 2153.13C3062.72 2166.14 3063.12 2175.5 3063.12 2181.19C3063.12 2190.14 3060.07 2196.64 3053.97 2200.71C3047.87 2205.18 3041.16 2207.42 3033.84 2207.42C3019.2 2207.42 3009.44 2203.35 3004.56 2195.22C3000.09 2187.49 2997.85 2176.31 2997.85 2161.67C2999.48 2126.7 3001.51 2094.37 3003.95 2064.68C3006.8 2021.98 3008.22 1969.52 3008.22 1907.3C3008.22 1902.42 3006.19 1895.3 3002.12 1885.95C2998.46 1876.6 2994.6 1869.28 2990.53 1863.99ZM3066.78 1985.99C3068.82 1993.72 3074.51 2000.22 3083.86 2005.51C3093.62 2010.39 3102.37 2012.83 3110.09 2012.83C3133.27 2012.83 3150.56 2006.53 3161.94 1993.92C3170.48 1984.97 3175.97 1976.23 3178.41 1967.69C3181.26 1959.15 3182.68 1945.53 3182.68 1926.82C3182.68 1912.18 3179.84 1899.98 3174.14 1890.22C3168.45 1880.05 3161.54 1872.73 3153.4 1868.26C3145.27 1863.38 3137.54 1860.94 3130.22 1860.94C3113.55 1860.94 3099.93 1866.02 3089.35 1876.19C3079.19 1885.95 3072.68 1899.37 3069.83 1916.45C3067.8 1929.87 3066.78 1953.05 3066.78 1985.99ZM3804.13 1964.64L3806.57 1917.67C3806.57 1900.59 3804.54 1887.98 3800.47 1879.85C3796.81 1871.72 3788.27 1867.65 3774.85 1867.65C3749.23 1867.65 3729.92 1882.09 3716.9 1910.96C3703.89 1939.43 3697.38 1981.11 3697.38 2036.01C3697.38 2038.45 3697.38 2043.53 3697.38 2051.26C3697.79 2058.58 3696.57 2064.27 3693.72 2068.34C3691.28 2072.41 3686.81 2074.44 3680.3 2074.44C3664.04 2074.44 3653.06 2069.97 3647.36 2061.02C3641.67 2052.07 3638.82 2038.86 3638.82 2021.37C3638.82 2012.42 3640.04 1994.12 3642.48 1966.47C3644.52 1946.95 3645.53 1933.33 3645.53 1925.6C3645.53 1905.27 3642.48 1890.42 3636.38 1881.07C3630.28 1871.72 3619.71 1867.04 3604.66 1867.04C3587.18 1867.04 3572.74 1875.78 3561.35 1893.27C3549.97 1910.76 3541.63 1932.51 3536.34 1958.54C3531.06 1984.16 3528.41 2009.58 3528.41 2034.79C3528.41 2046.58 3526.38 2056.14 3522.31 2063.46C3518.65 2070.78 3511.54 2074.44 3500.96 2074.44C3493.24 2074.44 3485.51 2072.41 3477.78 2068.34C3470.06 2063.87 3466.19 2057.97 3466.19 2050.65C3466.19 2042.92 3467.01 2035.2 3468.63 2027.47C3470.67 2014.86 3472.29 1996.36 3473.51 1971.96C3474.73 1947.56 3475.34 1924.58 3475.34 1903.03C3475.34 1893.27 3472.9 1883.92 3468.02 1874.97C3463.55 1865.62 3458.06 1860.94 3451.55 1860.94C3449.93 1860.94 3446.88 1861.75 3442.4 1863.38C3438.34 1865.01 3435.29 1865.82 3433.25 1865.82C3427.97 1865.82 3423.09 1863.38 3418.61 1858.5C3414.55 1853.62 3412.51 1849.55 3412.51 1846.3C3412.51 1836.13 3417.39 1827.59 3427.15 1820.68C3437.32 1813.36 3447.89 1809.7 3458.87 1809.7C3473.92 1809.7 3486.93 1814.78 3497.91 1824.95C3509.3 1835.12 3517.84 1848.74 3523.53 1865.82C3533.29 1848.33 3544.68 1834.71 3557.69 1824.95C3571.11 1814.78 3587.38 1809.7 3606.49 1809.7C3641.47 1809.7 3666.88 1825.36 3682.74 1856.67C3692.1 1841.62 3706.53 1830.03 3726.05 1821.9C3745.98 1813.77 3765.5 1809.7 3784.61 1809.7C3798.44 1809.7 3811.66 1813.97 3824.26 1822.51C3836.87 1830.64 3846.83 1841.62 3854.15 1855.45C3861.88 1868.87 3865.74 1882.9 3865.74 1897.54C3865.74 1906.89 3864.73 1927.43 3862.69 1959.15C3862.29 1964.44 3861.88 1970.33 3861.47 1976.84C3861.07 1982.94 3860.86 1989.45 3860.86 1996.36C3860.86 2004.9 3862.9 2011.81 3866.96 2017.1C3871.44 2022.39 3877.13 2025.64 3884.04 2026.86C3897.87 2030.11 3904.78 2035.81 3904.78 2043.94C3904.78 2053.29 3900.51 2060.82 3891.97 2066.51C3883.43 2071.8 3873.88 2074.44 3863.3 2074.44C3843.38 2074.44 3828.13 2068.75 3817.55 2057.36C3807.39 2045.57 3802.3 2028.69 3802.3 2006.73L3804.13 1964.64ZM3942.48 1932.31C3942.48 1907.5 3947.97 1886.97 3958.95 1870.7C3969.93 1854.03 3985.18 1838.37 4004.7 1823.73C4010.39 1819.66 4019.95 1816.21 4033.37 1813.36C4046.79 1810.11 4058.58 1808.48 4068.75 1808.48C4080.95 1808.48 4093.76 1811.12 4107.18 1816.41C4121.01 1821.29 4132.19 1826.98 4140.73 1833.49C4155.78 1844.47 4166.15 1857.28 4171.84 1871.92C4177.53 1886.15 4180.38 1903.23 4180.38 1923.16C4180.38 1931.7 4175.5 1940.04 4165.74 1948.17C4156.39 1955.9 4146.22 1959.76 4135.24 1959.76L4112.06 1959.15C4100.27 1959.15 4083.39 1959.56 4061.43 1960.37L4048.62 1960.98C4039.67 1961.79 4032.96 1962.2 4028.49 1962.2C4021.98 1962.2 4013.04 1961.39 4001.65 1959.76C4003.28 1978.87 4010.39 1993.92 4023 2004.9C4035.61 2015.47 4049.23 2020.76 4063.87 2020.76C4089.49 2020.76 4107.38 2015.68 4117.55 2005.51C4126.09 1999.41 4131.78 1995.55 4134.63 1993.92C4137.48 1992.29 4141.95 1991.48 4148.05 1991.48C4154.56 1991.48 4160.25 1994.53 4165.13 2000.63C4170.01 2006.73 4172.45 2012.83 4172.45 2018.93C4172.45 2025.84 4168.18 2032.96 4159.64 2040.28C4151.51 2047.19 4140.32 2054.51 4126.09 2062.24C4118.36 2065.49 4107.79 2068.34 4094.37 2070.78C4080.95 2073.22 4069.77 2074.44 4060.82 2074.44C4046.59 2074.44 4030.73 2070.37 4013.24 2062.24C3995.75 2053.7 3982.74 2044.35 3974.2 2034.18C3965.66 2024.01 3958.14 2009.58 3951.63 1990.87C3945.53 1972.16 3942.48 1952.64 3942.48 1932.31ZM4063.87 1915.84C4092.74 1915.84 4113.89 1914.82 4127.31 1912.79C4126.5 1901 4122.84 1891.44 4116.33 1884.12C4109.82 1876.39 4100.88 1869.89 4089.49 1864.6C4085.83 1862.97 4082.58 1861.75 4079.73 1860.94C4076.88 1860.13 4073.63 1859.72 4069.97 1859.72C4051.26 1859.72 4035.4 1864.8 4022.39 1874.97C4009.78 1885.14 4002.26 1898.15 3999.82 1914.01C4020.15 1915.23 4041.5 1915.84 4063.87 1915.84ZM4760.01 2050.65C4753.91 2039.26 4750.05 2026.66 4748.42 2012.83C4746.8 1998.6 4745.98 1979.08 4745.98 1954.27C4745.98 1930.68 4742.73 1910.15 4736.22 1892.66C4729.72 1875.17 4716.3 1866.43 4695.96 1866.43C4688.24 1866.43 4680.51 1868.87 4672.78 1873.75C4665.46 1878.22 4659.97 1883.92 4656.31 1890.83C4650.62 1901.81 4646.76 1913.81 4644.72 1926.82C4642.69 1939.43 4641.67 1954.07 4641.67 1970.74C4641.67 1981.31 4642.28 1992.09 4643.5 2003.07C4643.5 2006.32 4643.71 2011.61 4644.11 2018.93C4644.93 2025.84 4645.33 2032.15 4645.33 2037.84C4645.33 2062.24 4636.79 2074.44 4619.71 2074.44C4597.35 2074.44 4585.55 2062.65 4584.33 2039.06C4584.33 2022.39 4584.54 2013.44 4584.94 2012.22V1985.99C4584.94 1971.35 4584.33 1957.12 4583.11 1943.29C4581.89 1929.46 4580.47 1919.09 4578.84 1912.18C4575.18 1898.76 4570.3 1888.39 4564.2 1881.07C4558.51 1873.75 4549.36 1870.09 4536.75 1870.09C4518.86 1870.09 4504.42 1877.82 4493.44 1893.27C4485.72 1905.47 4480.63 1920.31 4478.19 1937.8C4475.75 1960.17 4473.92 1977.86 4472.7 1990.87C4471.89 2003.48 4471.48 2018.12 4471.48 2034.79C4471.48 2046.58 4469.45 2056.14 4465.38 2063.46C4461.72 2070.78 4454.61 2074.44 4444.03 2074.44C4436.31 2074.44 4428.17 2072.41 4419.63 2068.34C4411.5 2063.87 4407.43 2057.97 4407.43 2050.65C4407.43 2042.92 4408.25 2035.2 4409.87 2027.47C4413.53 2004.29 4415.36 1962.81 4415.36 1903.03C4415.36 1893.27 4412.92 1883.92 4408.04 1874.97C4403.57 1865.62 4398.08 1860.94 4391.57 1860.94C4389.95 1860.94 4386.9 1861.75 4382.42 1863.38C4378.36 1865.01 4375.31 1865.82 4373.27 1865.82C4367.99 1865.82 4363.11 1863.38 4358.63 1858.5C4354.57 1853.62 4352.53 1849.55 4352.53 1846.3C4352.53 1836.13 4357.41 1827.59 4367.17 1820.68C4377.34 1813.36 4387.91 1809.7 4398.89 1809.7C4413.94 1809.7 4426.75 1814.38 4437.32 1823.73C4447.9 1833.08 4456.03 1846.1 4461.72 1862.77C4471.08 1846.5 4483.68 1833.49 4499.54 1823.73C4515.4 1813.56 4533.09 1808.48 4552.61 1808.48C4564.81 1808.48 4574.57 1810.11 4581.89 1813.36C4589.62 1816.21 4595.92 1820.48 4600.8 1826.17C4605.68 1831.46 4611.99 1839.59 4619.71 1850.57C4629.88 1837.56 4642.89 1827.39 4658.75 1820.07C4675.02 1812.75 4691.69 1809.09 4708.77 1809.09C4729.11 1809.09 4747.41 1817.43 4763.67 1834.1C4779.94 1850.37 4790.92 1869.28 4796.61 1890.83C4799.46 1901.81 4800.88 1922.96 4800.88 1954.27L4803.32 1989.65C4805.36 2010.8 4812.27 2023.61 4824.06 2028.08C4837.89 2032.15 4844.8 2036.42 4844.8 2040.89C4844.8 2050.65 4842.36 2057.77 4837.48 2062.24C4833.82 2064.68 4828.74 2067.32 4822.23 2070.17C4815.73 2073.02 4810.64 2074.44 4806.98 2074.44C4785.02 2074.44 4769.37 2066.51 4760.01 2050.65ZM5164.94 2042.72C5164.94 2051.67 5160.06 2059.19 5150.3 2065.29C5140.54 2071.39 5131.6 2074.44 5123.46 2074.44C5108.42 2074.44 5096.22 2072.61 5086.86 2068.95C5077.92 2064.88 5069.38 2057.56 5061.24 2046.99C5051.08 2056.34 5036.84 2063.46 5018.54 2068.34C5000.24 2072.81 4983.37 2075.05 4967.91 2075.05C4942.7 2075.05 4921.76 2068.34 4905.08 2054.92C4888.82 2041.09 4880.68 2020.96 4880.68 1994.53C4880.68 1983.14 4884.14 1971.76 4891.05 1960.37C4897.97 1948.58 4906.51 1939.22 4916.67 1932.31C4927.65 1924.99 4940.06 1920.11 4953.88 1917.67C4967.71 1914.82 4983.77 1913.4 5002.07 1913.4C5010.61 1913.4 5020.78 1915.03 5032.57 1918.28C5044.37 1921.53 5053.72 1924.99 5060.63 1928.65V1918.89C5060.63 1896.93 5055.14 1881.88 5044.16 1873.75C5033.59 1865.21 5016.51 1860.94 4992.92 1860.94C4985.6 1860.94 4978.89 1862.16 4972.79 1864.6C4967.1 1866.63 4960.39 1869.68 4952.66 1873.75C4945.34 1877.82 4938.43 1879.85 4931.92 1879.85C4926.23 1879.85 4920.74 1877.61 4915.45 1873.14C4910.17 1868.26 4907.52 1863.18 4907.52 1857.89C4907.52 1840.81 4918.1 1828.41 4939.24 1820.68C4960.8 1812.55 4982.76 1808.48 5005.12 1808.48C5016.51 1808.48 5029.52 1810.92 5044.16 1815.8C5058.8 1820.27 5071.21 1826.58 5081.37 1834.71C5093.57 1844.88 5102.93 1857.08 5109.43 1871.31C5116.35 1885.54 5119.8 1901 5119.8 1917.67C5119.8 1922.96 5119.4 1930.89 5118.58 1941.46C5117.77 1952.85 5117.36 1962.61 5117.36 1970.74L5116.75 1987.21C5115.94 1996.16 5115.53 2003.27 5115.53 2008.56C5115.53 2013.44 5117.16 2017.71 5120.41 2021.37C5124.07 2024.62 5128.34 2026.25 5133.22 2026.25L5150.3 2025.64C5154.78 2025.64 5158.23 2027.47 5160.67 2031.13C5163.52 2034.38 5164.94 2038.25 5164.94 2042.72ZM4967.91 2026.86C4985.4 2026.86 5000.04 2025.03 5011.83 2021.37C5023.63 2017.71 5037.86 2011 5054.53 2001.24C5056.16 1994.33 5057.18 1985.18 5057.58 1973.79C5035.22 1963.22 5016.71 1957.93 5002.07 1957.93C4988.25 1957.93 4977.06 1958.54 4968.52 1959.76C4959.98 1960.57 4952.26 1964.03 4945.34 1970.13C4938.43 1976.23 4934.97 1985.99 4934.97 1999.41C4934.97 2007.14 4938.63 2013.64 4945.95 2018.93C4953.68 2024.22 4961 2026.86 4967.91 2026.86ZM5448.93 2016.49C5455.85 2021.78 5460.52 2026.86 5462.96 2031.74C5465.4 2036.62 5466.62 2042.72 5466.62 2050.04C5466.62 2056.14 5463.37 2061.83 5456.86 2067.12C5450.76 2072 5445.07 2074.44 5439.78 2074.44C5435.31 2074.44 5430.02 2073.02 5423.92 2070.17C5417.82 2067.32 5413.15 2064.07 5409.89 2060.41C5405.42 2056.75 5396.68 2047.8 5383.66 2033.57C5371.06 2019.34 5361.7 2008.15 5355.6 2000.02C5340.96 1981.72 5333.64 1972.57 5333.64 1972.57L5312.29 1946.34L5273.25 1978.06L5275.69 2044.55C5275.69 2055.53 5272.85 2063.26 5267.15 2067.73C5261.87 2072.2 5256.58 2074.44 5251.29 2074.44C5243.57 2074.44 5236.65 2073.02 5230.55 2070.17C5224.86 2067.32 5221.4 2064.07 5220.18 2060.41C5215.71 2044.14 5213.47 2022.79 5213.47 1996.36C5213.47 1946.75 5214.29 1907.1 5215.91 1877.41C5217.54 1840.4 5218.35 1805.43 5218.35 1772.49C5218.35 1762.32 5217.13 1748.29 5214.69 1730.4C5214.29 1726.74 5213.68 1720.84 5212.86 1712.71C5212.05 1704.58 5211.64 1697.26 5211.64 1690.75C5211.64 1681.4 5214.69 1674.08 5220.79 1668.79C5227.3 1663.5 5235.64 1660.86 5245.8 1660.86C5253.94 1660.86 5260.44 1663.5 5265.32 1668.79C5270.61 1673.67 5273.25 1680.58 5273.25 1689.53C5273.25 1702.95 5273.66 1720.64 5274.47 1742.6C5275.29 1764.56 5275.69 1780.62 5275.69 1790.79C5275.69 1803.4 5275.29 1820.27 5274.47 1841.42C5273.66 1852.81 5273.25 1861.35 5273.25 1867.04C5273.25 1884.93 5273.46 1899.78 5273.86 1911.57C5288.5 1896.52 5308.02 1879.04 5332.42 1859.11C5357.23 1838.78 5376.55 1824.54 5390.37 1816.41C5405.83 1807.06 5415.18 1802.38 5418.43 1802.38C5426.97 1802.38 5434.29 1804.21 5440.39 1807.87C5446.49 1811.53 5449.54 1817.02 5449.54 1824.34C5449.54 1831.66 5448.53 1837.35 5446.49 1841.42C5444.46 1845.08 5440.8 1848.94 5435.51 1853.01L5356.82 1910.35C5374.31 1931.9 5392.41 1953.86 5411.11 1976.23C5429.82 1998.19 5442.43 2011.61 5448.93 2016.49ZM5510.4 1942.68C5510.4 1927.23 5513.25 1911.77 5518.94 1896.32C5524.63 1880.46 5532.16 1866.02 5541.51 1853.01C5550.86 1840 5565.71 1829.42 5586.04 1821.29C5606.37 1812.75 5624.47 1808.48 5640.33 1808.48C5656.6 1808.48 5673.07 1810.72 5689.74 1815.19C5706.82 1819.66 5718.61 1826.58 5725.12 1835.93C5740.17 1857.08 5747.69 1877.82 5747.69 1898.15C5747.69 1909.13 5745.25 1918.48 5740.37 1926.21C5735.9 1933.94 5729.39 1942.27 5720.85 1951.22C5713.94 1958.54 5702.96 1963.42 5687.91 1965.86C5673.27 1968.3 5658.63 1969.52 5643.99 1969.52C5634.64 1969.52 5623.25 1968.71 5609.83 1967.08C5596.41 1965.05 5583.4 1962.61 5570.79 1959.76C5571.6 1967.89 5573.64 1975.82 5576.89 1983.55C5580.14 1991.28 5584.01 1997.17 5588.48 2001.24C5596.61 2008.97 5604.95 2013.85 5613.49 2015.88C5622.44 2017.91 5633.82 2018.93 5647.65 2018.93C5662.29 2018.93 5675.91 2016.49 5688.52 2011.61C5698.69 2007.95 5707.02 2006.12 5713.53 2006.12C5721.26 2006.12 5727.15 2008.56 5731.22 2013.44C5735.29 2017.91 5737.32 2023.81 5737.32 2031.13C5737.32 2041.3 5731.42 2049.63 5719.63 2056.14C5707.84 2062.65 5694.21 2067.53 5678.76 2070.78C5663.71 2073.63 5651.51 2075.05 5642.16 2075.05C5623.05 2075.05 5604.54 2071.59 5586.65 2064.68C5568.76 2057.77 5553.91 2048.01 5542.12 2035.4C5532.36 2024.01 5524.63 2010.39 5518.94 1994.53C5513.25 1978.26 5510.4 1960.98 5510.4 1942.68ZM5643.38 1860.33C5634.43 1860.33 5625.49 1862.16 5616.54 1865.82C5607.59 1869.07 5600.27 1873.75 5594.58 1879.85C5587.26 1887.58 5582.18 1893.88 5579.33 1898.76C5576.89 1903.23 5575.26 1909.54 5574.45 1917.67C5584.62 1920.92 5605.76 1922.55 5637.89 1922.55C5655.38 1922.55 5668.8 1919.91 5678.15 1914.62C5687.91 1909.33 5692.79 1902.42 5692.79 1893.88C5692.79 1885.34 5687.5 1877.61 5676.93 1870.7C5666.36 1863.79 5655.17 1860.33 5643.38 1860.33ZM6174.79 2074.44C6160.97 2074.44 6150.39 2072.41 6143.07 2068.34C6135.75 2063.87 6127.82 2055.73 6119.28 2043.94C6108.71 2053.29 6092.85 2060.82 6071.7 2066.51C6050.96 2072.2 6033.07 2075.05 6018.02 2075.05C5993.22 2075.05 5973.09 2068.34 5957.63 2054.92C5942.59 2041.09 5935.06 2020.96 5935.06 1994.53C5935.06 1983.14 5938.11 1972.77 5944.21 1963.42C5950.72 1953.66 5959.06 1945.12 5969.22 1937.8C5980.61 1930.07 5994.03 1923.97 6009.48 1919.5C6025.34 1915.03 6039.78 1912.79 6052.79 1912.79C6074.75 1912.79 6094.27 1914.82 6111.35 1918.89V1918.28C6111.35 1896.32 6105.86 1881.27 6094.88 1873.14C6084.31 1864.6 6067.23 1860.33 6043.64 1860.33C6028.6 1860.33 6015.58 1867.04 6004.6 1880.46C6000.54 1885.75 5992 1888.39 5978.98 1888.39C5972.48 1888.39 5967.6 1885.75 5964.34 1880.46C5961.5 1874.77 5960.07 1869.07 5960.07 1863.38C5960.07 1851.59 5964.95 1841.42 5974.71 1832.88C5984.88 1824.34 5997.08 1818.04 6011.31 1813.97C6025.55 1809.5 6038.76 1807.26 6050.96 1807.26C6062.76 1807.26 6076.79 1809.7 6093.05 1814.58C6109.32 1819.46 6122.54 1825.97 6132.7 1834.1C6144.9 1844.67 6154.26 1857.08 6160.76 1871.31C6167.68 1885.14 6171.13 1900.39 6171.13 1917.06C6171.13 1922.35 6170.73 1930.28 6169.91 1940.85C6169.1 1953.05 6168.69 1963.01 6168.69 1970.74C6168.69 1974.4 6168.29 1979.08 6167.47 1984.77C6166.66 1992.09 6166.25 1998.19 6166.25 2003.07C6166.25 2008.36 6167.88 2013.44 6171.13 2018.32C6174.39 2023.2 6178.86 2027.27 6184.55 2030.52C6189.84 2033.37 6193.3 2036.42 6194.92 2039.67C6196.55 2042.92 6197.36 2046.58 6197.36 2050.65C6197.36 2054.72 6194.72 2059.8 6189.43 2065.9C6184.55 2071.59 6179.67 2074.44 6174.79 2074.44ZM6052.79 1957.93C6036.93 1957.93 6022.9 1960.98 6010.7 1967.08C5998.5 1973.18 5992.4 1983.96 5992.4 1999.41C5992.4 2007.14 5995.05 2013.64 6000.33 2018.93C6006.03 2024.22 6012.13 2026.86 6018.63 2026.86C6036.12 2026.86 6050.76 2025.03 6062.55 2021.37C6074.35 2017.71 6088.58 2011 6105.25 2001.24C6107.29 1994.73 6108.51 1985.58 6108.91 1973.79C6108.91 1969.32 6109.12 1965.86 6109.52 1963.42C6087.56 1959.76 6068.65 1957.93 6052.79 1957.93ZM2833.79 2600.26C2833.79 2608.8 2831.96 2615.31 2828.3 2619.78C2825.05 2624.25 2819.56 2626.49 2811.83 2626.49C2806.14 2626.49 2801.26 2625.07 2797.19 2622.22C2793.53 2619.37 2788.65 2614.49 2782.55 2607.58C2777.67 2602.29 2771.98 2598.02 2765.47 2594.77C2759.37 2591.52 2753.88 2589.89 2749 2589.89C2724.19 2589.89 2706.3 2595.18 2695.32 2605.75C2688.41 2613.07 2682.71 2622.83 2678.24 2635.03C2673.77 2646.82 2671.53 2659.02 2671.53 2671.63C2671.53 2689.93 2674.17 2704.57 2679.46 2715.55C2684.75 2726.53 2694.1 2735.88 2707.52 2743.61C2712.4 2746.46 2719.31 2748.9 2728.26 2750.93C2737.21 2752.56 2744.53 2753.37 2750.22 2753.37C2757.95 2753.37 2766.08 2751.34 2774.62 2747.27C2783.16 2742.8 2790.48 2737.1 2796.58 2730.19C2804.31 2721.24 2813.66 2716.77 2824.64 2716.77C2829.11 2716.77 2834.2 2719.01 2839.89 2723.48C2845.99 2727.95 2849.04 2733.24 2849.04 2739.34C2849.04 2751.54 2843.14 2762.93 2831.35 2773.5C2819.96 2783.67 2805.93 2791.8 2789.26 2797.9C2772.59 2803.59 2757.13 2806.44 2742.9 2806.44C2718.91 2806.44 2696.54 2800.95 2675.8 2789.97C2655.47 2778.99 2639.2 2763.94 2627 2744.83C2614.8 2725.31 2608.7 2703.35 2608.7 2678.95C2608.7 2657.8 2612.56 2637.27 2620.29 2617.34C2628.42 2597.41 2639.2 2581.15 2652.62 2568.54C2663.6 2558.37 2677.22 2550.85 2693.49 2545.97C2709.76 2541.09 2726.84 2538.65 2744.73 2538.65C2757.34 2538.65 2770.35 2541.09 2783.77 2545.97C2797.19 2550.85 2807.97 2557.36 2816.1 2565.49C2827.89 2577.28 2833.79 2588.87 2833.79 2600.26ZM3141.08 2608.19C3144.33 2613.88 3146.97 2622.22 3149.01 2633.2C3151.04 2643.77 3152.06 2653.33 3152.06 2661.87C3152.06 2673.26 3150.23 2687.49 3146.57 2704.57C3142.91 2721.24 3139.86 2732.43 3137.42 2738.12C3115.46 2783.67 3073.16 2806.44 3010.54 2806.44C2990.61 2806.44 2971.09 2799.93 2951.98 2786.92C2932.86 2773.5 2919.24 2757.84 2911.11 2739.95L2906.84 2727.75C2906.43 2726.12 2904.19 2720.02 2900.13 2709.45C2896.47 2698.47 2894.64 2690.13 2894.64 2684.44C2894.64 2667.77 2898.7 2648.45 2906.84 2626.49C2914.97 2604.53 2924.32 2587.04 2934.9 2574.03C2941.81 2564.68 2955.03 2556.75 2974.55 2550.24C2994.07 2543.33 3011.35 2539.87 3026.4 2539.87C3054.46 2539.87 3077.03 2545.16 3094.11 2555.73C3111.59 2566.3 3127.25 2583.79 3141.08 2608.19ZM3084.96 2706.4C3086.58 2703.55 3088.01 2698.47 3089.23 2691.15C3090.45 2683.83 3091.06 2675.29 3091.06 2665.53C3091.06 2653.74 3088.82 2642.15 3084.35 2630.76C3080.28 2619.37 3074.18 2609.61 3066.05 2601.48C3065.64 2600.67 3064.22 2599.45 3061.78 2597.82C3059.34 2595.79 3055.47 2593.96 3050.19 2592.33C3044.9 2590.3 3038.19 2589.28 3030.06 2589.28C3014.2 2589.28 3000.78 2593.96 2989.8 2603.31C2978.82 2612.66 2970.48 2624.25 2964.79 2638.08C2959.5 2651.91 2956.86 2665.53 2956.86 2678.95C2956.86 2682.61 2958.08 2690.13 2960.52 2701.52C2962.96 2712.91 2964.79 2720.23 2966.01 2723.48C2969.26 2729.17 2975.56 2735.88 2984.92 2743.61C2994.27 2750.93 3004.84 2754.59 3016.64 2754.59C3034.94 2754.59 3049.17 2750.32 3059.34 2741.78C3069.91 2733.24 3078.45 2721.45 3084.96 2706.4ZM3352.02 2647.23C3353.24 2643.98 3357.51 2632.18 3364.83 2611.85C3372.56 2591.52 3379.68 2576.06 3386.18 2565.49C3396.76 2548.82 3406.11 2540.48 3414.24 2540.48C3425.63 2540.48 3434.37 2542.72 3440.47 2547.19C3446.57 2551.26 3449.62 2557.15 3449.62 2564.88C3449.62 2568.54 3448 2573.62 3444.74 2580.13C3441.9 2586.64 3440.27 2590.5 3439.86 2591.72C3423.6 2627.51 3408.96 2665.94 3395.94 2707.01L3383.13 2754.59C3378.25 2770.04 3369.92 2782.65 3358.12 2792.41C3346.33 2801.76 3332.5 2806.44 3316.64 2806.44C3302.41 2806.44 3289.19 2799.93 3276.99 2786.92C3269.67 2775.53 3261.95 2761.1 3253.81 2743.61C3246.09 2726.12 3239.38 2709.04 3233.68 2692.37L3212.33 2628.32C3207.86 2615.71 3204.2 2604.94 3201.35 2595.99C3198.91 2587.04 3197.69 2578.91 3197.69 2571.59C3197.29 2563.05 3199.73 2556.14 3205.01 2550.85C3210.3 2545.56 3217.62 2542.92 3226.97 2542.92C3237.55 2542.92 3245.07 2545.16 3249.54 2549.63C3254.02 2553.7 3258.08 2560.2 3261.74 2569.15C3263.37 2578.5 3267.84 2597.62 3275.16 2626.49L3279.43 2643.57C3283.09 2657.4 3287.77 2671.43 3293.46 2685.66C3299.16 2699.89 3304.85 2713.52 3310.54 2726.53C3309.73 2724.5 3312.58 2731.21 3319.08 2746.66C3323.15 2734.87 3327.83 2720.43 3333.11 2703.35L3352.02 2647.23ZM3487.99 2674.68C3487.99 2659.23 3490.83 2643.77 3496.53 2628.32C3502.22 2612.46 3509.74 2598.02 3519.1 2585.01C3528.45 2572 3543.29 2561.42 3563.63 2553.29C3583.96 2544.75 3602.06 2540.48 3617.92 2540.48C3634.18 2540.48 3650.65 2542.72 3667.33 2547.19C3684.41 2551.66 3696.2 2558.58 3702.71 2567.93C3717.75 2589.08 3725.28 2609.82 3725.28 2630.15C3725.28 2641.13 3722.84 2650.48 3717.96 2658.21C3713.48 2665.94 3706.98 2674.27 3698.44 2683.22C3691.52 2690.54 3680.54 2695.42 3665.5 2697.86C3650.86 2700.3 3636.22 2701.52 3621.58 2701.52C3612.22 2701.52 3600.84 2700.71 3587.42 2699.08C3574 2697.05 3560.98 2694.61 3548.38 2691.76C3549.19 2699.89 3551.22 2707.82 3554.48 2715.55C3557.73 2723.28 3561.59 2729.17 3566.07 2733.24C3574.2 2740.97 3582.54 2745.85 3591.08 2747.88C3600.02 2749.91 3611.41 2750.93 3625.24 2750.93C3639.88 2750.93 3653.5 2748.49 3666.11 2743.61C3676.27 2739.95 3684.61 2738.12 3691.12 2738.12C3698.84 2738.12 3704.74 2740.56 3708.81 2745.44C3712.87 2749.91 3714.91 2755.81 3714.91 2763.13C3714.91 2773.3 3709.01 2781.63 3697.22 2788.14C3685.42 2794.65 3671.8 2799.53 3656.35 2802.78C3641.3 2805.63 3629.1 2807.05 3619.75 2807.05C3600.63 2807.05 3582.13 2803.59 3564.24 2796.68C3546.34 2789.77 3531.5 2780.01 3519.71 2767.4C3509.95 2756.01 3502.22 2742.39 3496.53 2726.53C3490.83 2710.26 3487.99 2692.98 3487.99 2674.68ZM3620.97 2592.33C3612.02 2592.33 3603.07 2594.16 3594.13 2597.82C3585.18 2601.07 3577.86 2605.75 3572.17 2611.85C3564.85 2619.58 3559.76 2625.88 3556.92 2630.76C3554.48 2635.23 3552.85 2641.54 3552.04 2649.67C3562.2 2652.92 3583.35 2654.55 3615.48 2654.55C3632.96 2654.55 3646.38 2651.91 3655.74 2646.62C3665.5 2641.33 3670.38 2634.42 3670.38 2625.88C3670.38 2617.34 3665.09 2609.61 3654.52 2602.7C3643.94 2595.79 3632.76 2592.33 3620.97 2592.33ZM3786.01 2589.89C3775.44 2582.57 3770.15 2574.84 3770.15 2566.71C3770.15 2561.02 3772.59 2555.73 3777.47 2550.85C3782.35 2545.97 3789.67 2543.53 3799.43 2543.53C3810.82 2543.53 3820.98 2546.58 3829.93 2552.68C3839.28 2558.37 3845.79 2566.71 3849.45 2577.69C3858.8 2566.71 3869.38 2557.97 3881.17 2551.46C3893.37 2544.95 3905.77 2541.7 3918.38 2541.7C3933.43 2541.7 3947.05 2545.77 3959.25 2553.9C3971.45 2562.03 3977.55 2573.01 3977.55 2586.84C3977.55 2594.57 3974.09 2602.5 3967.18 2610.63C3960.67 2618.76 3953.96 2622.83 3947.05 2622.83C3943.39 2622.83 3940.14 2622.02 3937.29 2620.39C3934.85 2618.36 3931.8 2615.51 3928.14 2611.85C3924.07 2607.78 3920.62 2604.94 3917.77 2603.31C3914.92 2601.28 3911.67 2600.26 3908.01 2600.26C3901.5 2600.26 3895.4 2601.28 3889.71 2603.31C3884.02 2605.34 3880.15 2607.78 3878.12 2610.63C3871.61 2620.8 3866.73 2629.95 3863.48 2638.08C3860.63 2646.21 3859.21 2654.96 3859.21 2664.31C3859.21 2671.22 3859.01 2676.71 3858.6 2680.78L3857.99 2715.55C3857.99 2720.84 3858.19 2726.73 3858.6 2733.24C3859.01 2739.75 3859.41 2744.63 3859.82 2747.88C3861.04 2758.86 3861.65 2769.43 3861.65 2779.6C3861.65 2786.51 3859.01 2792.61 3853.72 2797.9C3848.43 2803.19 3841.93 2805.83 3834.2 2805.83C3822 2805.83 3813.05 2803.59 3807.36 2799.12C3801.67 2794.24 3798.82 2785.5 3798.82 2772.89L3798.21 2733.85C3797.8 2726.12 3797.6 2715.14 3797.6 2700.91L3798.21 2660.65C3799.02 2641.13 3799.43 2625.27 3799.43 2613.07C3799.43 2608.6 3798.41 2604.53 3796.38 2600.87C3794.75 2597.21 3791.3 2593.55 3786.01 2589.89ZM4181.63 2412.38C4195.87 2413.6 4208.27 2417.46 4218.84 2423.97C4229.42 2430.07 4234.7 2439.42 4234.7 2452.03C4234.7 2461.38 4230.23 2468.91 4221.28 2474.6C4212.74 2479.89 4202.37 2482.53 4190.17 2482.53C4178.38 2482.53 4170.25 2479.48 4165.77 2473.38C4161.3 2467.28 4159.06 2460.98 4159.06 2454.47C4159.06 2442.27 4160.28 2432.1 4162.72 2423.97C4165.57 2415.84 4171.87 2411.97 4181.63 2412.38ZM4230.43 2682.61V2700.3C4230.43 2716.16 4230.84 2731.21 4231.65 2745.44C4232.87 2759.27 4234.3 2773.3 4235.92 2787.53C4235.92 2792.41 4233.08 2796.88 4227.38 2800.95C4221.69 2804.61 4216.4 2806.44 4211.52 2806.44C4203.8 2806.44 4195.87 2805.02 4187.73 2802.17C4180.01 2798.92 4175.33 2795.05 4173.7 2790.58C4171.26 2777.57 4170.04 2765.98 4170.04 2755.81C4170.04 2722.46 4169.03 2685.05 4166.99 2643.57C4165.37 2606.97 4164.55 2581.35 4164.55 2566.71C4164.55 2559.39 4168.21 2553.09 4175.53 2547.8C4182.85 2542.51 4190.58 2539.87 4198.71 2539.87C4210.51 2539.87 4218.64 2542.51 4223.11 2547.8C4227.99 2553.09 4230.43 2561.42 4230.43 2572.81V2682.61ZM4675.65 2696.64L4678.09 2649.67C4678.09 2632.59 4676.05 2619.98 4671.99 2611.85C4668.33 2603.72 4659.79 2599.65 4646.37 2599.65C4620.75 2599.65 4601.43 2614.09 4588.42 2642.96C4575.4 2671.43 4568.9 2713.11 4568.9 2768.01C4568.9 2770.45 4568.9 2775.53 4568.9 2783.26C4569.3 2790.58 4568.08 2796.27 4565.24 2800.34C4562.8 2804.41 4558.32 2806.44 4551.82 2806.44C4535.55 2806.44 4524.57 2801.97 4518.88 2793.02C4513.18 2784.07 4510.34 2770.86 4510.34 2753.37C4510.34 2744.42 4511.56 2726.12 4514 2698.47C4516.03 2678.95 4517.05 2665.33 4517.05 2657.6C4517.05 2637.27 4514 2622.42 4507.9 2613.07C4501.8 2603.72 4491.22 2599.04 4476.18 2599.04C4458.69 2599.04 4444.25 2607.78 4432.87 2625.27C4421.48 2642.76 4413.14 2664.51 4407.86 2690.54C4402.57 2716.16 4399.93 2741.58 4399.93 2766.79C4399.93 2778.58 4397.89 2788.14 4393.83 2795.46C4390.17 2802.78 4383.05 2806.44 4372.48 2806.44C4364.75 2806.44 4357.02 2804.41 4349.3 2800.34C4341.57 2795.87 4337.71 2789.97 4337.71 2782.65C4337.71 2774.92 4338.52 2767.2 4340.15 2759.47C4342.18 2746.86 4343.81 2728.36 4345.03 2703.96C4346.25 2679.56 4346.86 2656.58 4346.86 2635.03C4346.86 2625.27 4344.42 2615.92 4339.54 2606.97C4335.06 2597.62 4329.57 2592.94 4323.07 2592.94C4321.44 2592.94 4318.39 2593.75 4313.92 2595.38C4309.85 2597.01 4306.8 2597.82 4304.77 2597.82C4299.48 2597.82 4294.6 2595.38 4290.13 2590.5C4286.06 2585.62 4284.03 2581.55 4284.03 2578.3C4284.03 2568.13 4288.91 2559.59 4298.67 2552.68C4308.83 2545.36 4319.41 2541.7 4330.39 2541.7C4345.43 2541.7 4358.45 2546.78 4369.43 2556.95C4380.81 2567.12 4389.35 2580.74 4395.05 2597.82C4404.81 2580.33 4416.19 2566.71 4429.21 2556.95C4442.63 2546.78 4458.89 2541.7 4478.01 2541.7C4512.98 2541.7 4538.4 2557.36 4554.26 2588.67C4563.61 2573.62 4578.05 2562.03 4597.57 2553.9C4617.49 2545.77 4637.01 2541.7 4656.13 2541.7C4669.95 2541.7 4683.17 2545.97 4695.78 2554.51C4708.38 2562.64 4718.35 2573.62 4725.67 2587.45C4733.39 2600.87 4737.26 2614.9 4737.26 2629.54C4737.26 2638.89 4736.24 2659.43 4734.21 2691.15C4733.8 2696.44 4733.39 2702.33 4732.99 2708.84C4732.58 2714.94 4732.38 2721.45 4732.38 2728.36C4732.38 2736.9 4734.41 2743.81 4738.48 2749.1C4742.95 2754.39 4748.64 2757.64 4755.56 2758.86C4769.38 2762.11 4776.3 2767.81 4776.3 2775.94C4776.3 2785.29 4772.03 2792.82 4763.49 2798.51C4754.95 2803.8 4745.39 2806.44 4734.82 2806.44C4714.89 2806.44 4699.64 2800.75 4689.07 2789.36C4678.9 2777.57 4673.82 2760.69 4673.82 2738.73L4675.65 2696.64ZM5097.03 2774.72C5097.03 2783.67 5092.15 2791.19 5082.39 2797.29C5072.63 2803.39 5063.69 2806.44 5055.55 2806.44C5040.51 2806.44 5028.31 2804.61 5018.95 2800.95C5010.01 2796.88 5001.47 2789.56 4993.33 2778.99C4983.17 2788.34 4968.93 2795.46 4950.63 2800.34C4932.33 2804.81 4915.46 2807.05 4900 2807.05C4874.79 2807.05 4853.85 2800.34 4837.17 2786.92C4820.91 2773.09 4812.77 2752.96 4812.77 2726.53C4812.77 2715.14 4816.23 2703.76 4823.14 2692.37C4830.06 2680.58 4838.6 2671.22 4848.76 2664.31C4859.74 2656.99 4872.15 2652.11 4885.97 2649.67C4899.8 2646.82 4915.86 2645.4 4934.16 2645.4C4942.7 2645.4 4952.87 2647.03 4964.66 2650.28C4976.46 2653.53 4985.81 2656.99 4992.72 2660.65V2650.89C4992.72 2628.93 4987.23 2613.88 4976.25 2605.75C4965.68 2597.21 4948.6 2592.94 4925.01 2592.94C4917.69 2592.94 4910.98 2594.16 4904.88 2596.6C4899.19 2598.63 4892.48 2601.68 4884.75 2605.75C4877.43 2609.82 4870.52 2611.85 4864.01 2611.85C4858.32 2611.85 4852.83 2609.61 4847.54 2605.14C4842.26 2600.26 4839.61 2595.18 4839.61 2589.89C4839.61 2572.81 4850.19 2560.41 4871.33 2552.68C4892.89 2544.55 4914.85 2540.48 4937.21 2540.48C4948.6 2540.48 4961.61 2542.92 4976.25 2547.8C4990.89 2552.27 5003.3 2558.58 5013.46 2566.71C5025.66 2576.88 5035.02 2589.08 5041.52 2603.31C5048.44 2617.54 5051.89 2633 5051.89 2649.67C5051.89 2654.96 5051.49 2662.89 5050.67 2673.46C5049.86 2684.85 5049.45 2694.61 5049.45 2702.74L5048.84 2719.21C5048.03 2728.16 5047.62 2735.27 5047.62 2740.56C5047.62 2745.44 5049.25 2749.71 5052.5 2753.37C5056.16 2756.62 5060.43 2758.25 5065.31 2758.25L5082.39 2757.64C5086.87 2757.64 5090.32 2759.47 5092.76 2763.13C5095.61 2766.38 5097.03 2770.25 5097.03 2774.72ZM4900 2758.86C4917.49 2758.86 4932.13 2757.03 4943.92 2753.37C4955.72 2749.71 4969.95 2743 4986.62 2733.24C4988.25 2726.33 4989.27 2717.18 4989.67 2705.79C4967.31 2695.22 4948.8 2689.93 4934.16 2689.93C4920.34 2689.93 4909.15 2690.54 4900.61 2691.76C4892.07 2692.57 4884.35 2696.03 4877.43 2702.13C4870.52 2708.23 4867.06 2717.99 4867.06 2731.41C4867.06 2739.14 4870.72 2745.64 4878.04 2750.93C4885.77 2756.22 4893.09 2758.86 4900 2758.86ZM5356.62 2802.78C5367.6 2810.51 5374.92 2819.05 5378.58 2828.4C5382.65 2837.75 5384.68 2850.77 5384.68 2867.44C5384.68 2875.57 5382.24 2883.71 5377.36 2891.84C5372.89 2899.97 5368.21 2905.87 5363.33 2909.53C5324.7 2930.68 5286.07 2941.25 5247.43 2941.25C5228.32 2941.25 5211.85 2938.81 5198.02 2933.93C5184.2 2929.05 5171.18 2922.54 5158.98 2914.41C5150.85 2908.31 5144.14 2899.77 5138.85 2888.79C5133.97 2878.22 5131.53 2867.64 5131.53 2857.07C5131.53 2842.43 5136.01 2829.62 5144.95 2818.64C5154.31 2807.66 5166.71 2799.73 5182.16 2794.85C5179.32 2788.75 5177.89 2781.63 5177.89 2773.5C5177.89 2765.77 5183.59 2754.18 5194.97 2738.73C5175.45 2732.22 5160 2720.63 5148.61 2703.96C5137.63 2687.29 5132.14 2667.77 5132.14 2645.4C5132.14 2631.57 5135.4 2619.37 5141.9 2608.8C5148.41 2597.82 5158.17 2585.21 5171.18 2570.98C5180.13 2561.22 5191.52 2554.1 5205.34 2549.63C5219.17 2545.16 5236.45 2542.92 5257.19 2542.92C5271.83 2542.92 5289.93 2546.17 5311.48 2552.68C5337.1 2534.79 5359.67 2525.84 5379.19 2525.84C5384.07 2525.84 5389.56 2527.06 5395.66 2529.5C5402.17 2531.94 5407.05 2534.38 5410.3 2536.82C5412.74 2541.29 5413.96 2548.82 5413.96 2559.39C5413.96 2563.46 5412.13 2567.52 5408.47 2571.59C5405.22 2575.25 5400.95 2577.08 5395.66 2577.08L5381.02 2576.47C5373.7 2575.66 5368.01 2575.25 5363.94 2575.25C5359.47 2575.25 5352.76 2575.66 5343.81 2576.47C5352.35 2586.64 5358.86 2597.41 5363.33 2608.8C5368.21 2620.19 5370.65 2635.03 5370.65 2653.33C5370.65 2667.16 5365.57 2681.59 5355.4 2696.64C5345.24 2711.69 5333.24 2723.48 5319.41 2732.02C5298.27 2743.41 5273.66 2749.3 5245.6 2749.71C5242.35 2752.96 5239.5 2756.01 5237.06 2758.86C5235.03 2761.3 5234.01 2763.33 5234.01 2764.96C5234.01 2769.43 5237.88 2772.89 5245.6 2775.33C5253.33 2777.77 5265.12 2779.6 5280.98 2780.82C5293.18 2781.63 5306.6 2784.28 5321.24 2788.75C5336.29 2792.82 5348.08 2797.49 5356.62 2802.78ZM5249.26 2699.69C5267.97 2699.69 5283.02 2694.61 5294.4 2684.44C5305.79 2674.27 5311.48 2659.84 5311.48 2641.13C5311.48 2626.9 5306.4 2615.31 5296.23 2606.36C5286.07 2597.41 5273.05 2592.94 5257.19 2592.94C5247.03 2592.94 5236.05 2594.77 5224.25 2598.43C5212.87 2601.68 5204.73 2606.97 5199.85 2614.29C5197.41 2617.54 5194.97 2623.85 5192.53 2633.2C5190.09 2642.15 5188.87 2649.06 5188.87 2653.94C5188.87 2660.85 5191.72 2667.97 5197.41 2675.29C5203.51 2682.2 5211.24 2688.1 5220.59 2692.98C5230.35 2697.45 5239.91 2699.69 5249.26 2699.69ZM5287.69 2832.06C5265.33 2830.03 5249.47 2827.99 5240.11 2825.96C5231.17 2824.33 5223.85 2822.3 5218.15 2819.86C5197.41 2830.84 5187.04 2842.84 5187.04 2855.85C5187.04 2868.05 5193.35 2877.2 5205.95 2883.3C5218.56 2889.81 5233 2893.06 5249.26 2893.06C5256.58 2893.06 5266.55 2892.25 5279.15 2890.62C5291.76 2888.99 5302.33 2886.15 5310.87 2882.08C5316.57 2879.23 5320.84 2876.39 5323.68 2873.54C5326.53 2871.1 5327.95 2866.42 5327.95 2859.51C5327.95 2850.97 5323.48 2844.46 5314.53 2839.99C5305.59 2835.52 5296.64 2832.87 5287.69 2832.06ZM5444.28 2674.68C5444.28 2659.23 5447.12 2643.77 5452.82 2628.32C5458.51 2612.46 5466.03 2598.02 5475.39 2585.01C5484.74 2572 5499.58 2561.42 5519.92 2553.29C5540.25 2544.75 5558.35 2540.48 5574.21 2540.48C5590.47 2540.48 5606.94 2542.72 5623.62 2547.19C5640.7 2551.66 5652.49 2558.58 5659 2567.93C5674.04 2589.08 5681.57 2609.82 5681.57 2630.15C5681.57 2641.13 5679.13 2650.48 5674.25 2658.21C5669.77 2665.94 5663.27 2674.27 5654.73 2683.22C5647.81 2690.54 5636.83 2695.42 5621.79 2697.86C5607.15 2700.3 5592.51 2701.52 5577.87 2701.52C5568.51 2701.52 5557.13 2700.71 5543.71 2699.08C5530.29 2697.05 5517.27 2694.61 5504.67 2691.76C5505.48 2699.89 5507.51 2707.82 5510.77 2715.55C5514.02 2723.28 5517.88 2729.17 5522.36 2733.24C5530.49 2740.97 5538.83 2745.85 5547.37 2747.88C5556.31 2749.91 5567.7 2750.93 5581.53 2750.93C5596.17 2750.93 5609.79 2748.49 5622.4 2743.61C5632.56 2739.95 5640.9 2738.12 5647.41 2738.12C5655.13 2738.12 5661.03 2740.56 5665.1 2745.44C5669.16 2749.91 5671.2 2755.81 5671.2 2763.13C5671.2 2773.3 5665.3 2781.63 5653.51 2788.14C5641.71 2794.65 5628.09 2799.53 5612.64 2802.78C5597.59 2805.63 5585.39 2807.05 5576.04 2807.05C5556.92 2807.05 5538.42 2803.59 5520.53 2796.68C5502.63 2789.77 5487.79 2780.01 5476 2767.4C5466.24 2756.01 5458.51 2742.39 5452.82 2726.53C5447.12 2710.26 5444.28 2692.98 5444.28 2674.68ZM5577.26 2592.33C5568.31 2592.33 5559.36 2594.16 5550.42 2597.82C5541.47 2601.07 5534.15 2605.75 5528.46 2611.85C5521.14 2619.58 5516.05 2625.88 5513.21 2630.76C5510.77 2635.23 5509.14 2641.54 5508.33 2649.67C5518.49 2652.92 5539.64 2654.55 5571.77 2654.55C5589.25 2654.55 5602.67 2651.91 5612.03 2646.62C5621.79 2641.33 5626.67 2634.42 5626.67 2625.88C5626.67 2617.34 5621.38 2609.61 5610.81 2602.7C5600.23 2595.79 5589.05 2592.33 5577.26 2592.33Z" fill="#7E57C2"/>
</svg>
