<svg width="8291" height="4448" viewBox="0 0 8291 4448" fill="none" xmlns="http://www.w3.org/2000/svg">
<rect width="8291" height="4448" fill="#060B19"/>
<path d="M1656.6 2003.2C1656.6 2014.99 1656.19 2030.65 1655.38 2050.17L1654.77 2089.82C1654.77 2128.45 1657.61 2160.78 1663.31 2186.81C1671.44 2223.41 1683.64 2251.67 1699.91 2271.6C1714.95 2289.09 1733.46 2297.83 1755.42 2297.83C1772.5 2297.83 1787.75 2292.75 1801.17 2282.58C1814.59 2272.01 1824.96 2258.99 1832.28 2243.54C1844.48 2218.33 1850.58 2187.22 1850.58 2150.21C1850.58 2127.84 1849.15 2101.41 1846.31 2070.91C1843.87 2036.75 1842.65 2011.13 1842.65 1994.05C1842.65 1985.1 1847.93 1979.41 1858.51 1976.97C1869.08 1974.12 1880.06 1972.7 1891.45 1972.7C1895.51 1972.7 1900.19 1975.34 1905.48 1980.63C1910.76 1985.92 1913.41 1991.61 1913.41 1997.71C1913.41 2009.91 1912.8 2021.5 1911.58 2032.48C1910.76 2044.68 1910.36 2053.22 1910.36 2058.1C1910.36 2073.55 1911.17 2095.11 1912.8 2122.76C1913.2 2129.67 1913.61 2138.01 1914.02 2147.77C1914.42 2157.53 1914.63 2168.71 1914.63 2181.32C1914.63 2208.97 1907.92 2236.63 1894.5 2264.28C1881.48 2291.53 1863.18 2314.1 1839.6 2331.99C1816.01 2349.48 1789.37 2358.22 1759.69 2358.22C1714.14 2358.22 1678.56 2343.58 1652.94 2314.3C1627.32 2284.61 1609.83 2246.39 1600.48 2199.62C1595.19 2172.78 1591.73 2144.72 1590.11 2115.44C1588.89 2086.16 1588.28 2046.92 1588.28 1997.71C1588.28 1991.2 1591.33 1985.1 1597.43 1979.41C1603.93 1973.72 1610.85 1970.87 1618.17 1970.87C1643.79 1970.87 1656.6 1981.65 1656.6 2003.2ZM2263.6 2310.03C2265.63 2310.84 2268.89 2311.86 2273.36 2313.08C2277.83 2314.3 2281.09 2315.52 2283.12 2316.74C2285.15 2317.96 2286.17 2319.79 2286.17 2322.23C2286.58 2331.99 2282.92 2340.12 2275.19 2346.63C2267.87 2352.73 2259.13 2355.78 2248.96 2355.78C2233.1 2355.78 2220.7 2351.51 2211.75 2342.97C2202.8 2334.43 2196.3 2321.42 2192.23 2303.93C2190.6 2297.02 2189.79 2287.46 2189.79 2275.26C2189.79 2268.35 2190.2 2257.16 2191.01 2241.71C2191.82 2225.44 2192.23 2212.43 2192.23 2202.67C2192.23 2188.44 2188.16 2176.03 2180.03 2165.46C2172.3 2154.48 2161.32 2148.99 2147.09 2148.99C2138.55 2148.99 2129.6 2151.63 2120.25 2156.92C2110.9 2161.8 2104.39 2167.9 2100.73 2175.22C2094.63 2187.01 2090.36 2199.82 2087.92 2213.65C2083.45 2238.05 2081.21 2263.47 2081.21 2289.9C2081.21 2302.51 2081.41 2312.27 2081.82 2319.18C2081.82 2320.81 2081.82 2324.06 2081.82 2328.94C2082.23 2333.41 2081.82 2337.68 2080.6 2341.75C2079.79 2345.41 2078.16 2348.87 2075.72 2352.12C2073.69 2354.15 2070.43 2355.78 2065.96 2357C2061.89 2358.63 2058.03 2359.44 2054.37 2359.44C2048.68 2359.44 2041.56 2357 2033.02 2352.12C2024.48 2347.24 2019.6 2341.75 2018.38 2335.65L2017.77 2325.28C2017.77 2321.62 2018.18 2317.35 2018.99 2312.47C2023.87 2284 2026.31 2259.2 2026.31 2238.05C2026.31 2228.7 2026.11 2221.38 2025.7 2216.09L2025.09 2187.42C2025.09 2177.66 2022.65 2168.31 2017.77 2159.36C2012.89 2150.01 2007.2 2145.33 2000.69 2145.33C1998.66 2145.33 1995.81 2146.14 1992.15 2147.77C1988.49 2148.99 1985.44 2149.6 1983 2149.6C1978.93 2149.6 1974.46 2147.57 1969.58 2143.5C1965.11 2139.43 1962.87 2135.16 1962.87 2130.69C1962.87 2122.15 1965.72 2115.24 1971.41 2109.95C1977.51 2105.07 1983.41 2101.21 1989.1 2098.36C1995.2 2095.51 2002.11 2094.09 2009.84 2094.09C2016.35 2094.09 2021.63 2094.7 2025.7 2095.92C2029.77 2097.14 2035.26 2099.78 2042.17 2103.85C2045.83 2105.88 2050.1 2110.36 2054.98 2117.27C2059.86 2124.18 2063.93 2133.94 2067.18 2146.55C2077.75 2127.03 2090.77 2113.41 2106.22 2105.68C2122.08 2097.55 2142.21 2093.48 2166.61 2093.48C2175.96 2093.48 2185.93 2096.53 2196.5 2102.63C2207.48 2108.73 2216.83 2115.85 2224.56 2123.98C2231.88 2132.93 2237.98 2144.11 2242.86 2157.53C2247.74 2170.54 2250.18 2182.34 2250.18 2192.91C2250.18 2199.01 2249.77 2208.97 2248.96 2222.8C2247.74 2233.78 2247.13 2245.37 2247.13 2257.57C2247.13 2286.04 2252.62 2303.52 2263.6 2310.03ZM2582.89 2353.95C2574.35 2353.95 2566.22 2351.51 2558.49 2346.63C2551.17 2341.34 2544.67 2335.85 2538.97 2330.16C2533.28 2324.06 2529.42 2319.99 2527.38 2317.96C2518.84 2330.16 2506.44 2340.12 2490.17 2347.85C2473.91 2355.58 2458.25 2359.44 2443.2 2359.44C2420.02 2359.44 2399.49 2354.56 2381.59 2344.8C2363.7 2335.04 2349.87 2321.82 2340.11 2305.15C2330.35 2288.07 2325.47 2269.16 2325.47 2248.42C2325.47 2228.9 2327.71 2210.19 2332.18 2192.3C2337.06 2174 2343.57 2158.75 2351.7 2146.55C2362.68 2131.1 2377.32 2118.9 2395.62 2109.95C2414.33 2101 2432.83 2096.53 2451.13 2096.53C2462.11 2096.53 2472.48 2098.56 2482.24 2102.63C2492 2106.7 2500.54 2111.78 2507.86 2117.88C2507.86 2091.04 2507.66 2074.16 2507.25 2067.25V2053.83C2507.25 2015.6 2509.69 1987.75 2514.57 1970.26C2519.05 1953.18 2530.03 1944.64 2547.51 1944.64C2556.87 1944.64 2563.78 1946.67 2568.25 1950.74C2572.73 1954.81 2574.96 1962.53 2574.96 1973.92C2574.96 1977.99 2573.95 1989.17 2571.91 2007.47C2567.44 2053.02 2565.2 2098.56 2565.2 2144.11C2565.2 2182.34 2565.81 2210.8 2567.03 2229.51C2568.66 2247.81 2571.71 2262.45 2576.18 2273.43C2581.06 2284.41 2588.59 2294.17 2598.75 2302.71C2604.85 2307.59 2609.12 2311.66 2611.56 2314.91C2614.41 2318.16 2615.83 2322.43 2615.83 2327.72C2615.83 2334.23 2612.58 2340.33 2606.07 2346.02C2599.57 2351.31 2591.84 2353.95 2582.89 2353.95ZM2441.37 2310.03C2462.93 2310.03 2478.79 2303.32 2488.95 2289.9C2499.53 2276.07 2504.81 2258.59 2504.81 2237.44L2504.2 2203.28C2503.8 2196.77 2503.59 2188.03 2503.59 2177.05C2488.55 2159.16 2472.28 2150.21 2454.79 2150.21C2443 2150.21 2431.82 2153.26 2421.24 2159.36C2411.08 2165.46 2402.74 2174.41 2396.23 2186.2C2389.32 2199.62 2385.86 2219.95 2385.86 2247.2C2385.86 2265.91 2391.35 2281.16 2402.33 2292.95C2413.31 2304.34 2426.33 2310.03 2441.37 2310.03ZM2651.92 2227.68C2651.92 2212.23 2654.76 2196.77 2660.46 2181.32C2666.15 2165.46 2673.67 2151.02 2683.03 2138.01C2692.38 2125 2707.22 2114.42 2727.56 2106.29C2747.89 2097.75 2765.99 2093.48 2781.85 2093.48C2798.11 2093.48 2814.58 2095.72 2831.26 2100.19C2848.34 2104.66 2860.13 2111.58 2866.64 2120.93C2881.68 2142.08 2889.21 2162.82 2889.21 2183.15C2889.21 2194.13 2886.77 2203.48 2881.89 2211.21C2877.41 2218.94 2870.91 2227.27 2862.37 2236.22C2855.45 2243.54 2844.47 2248.42 2829.43 2250.86C2814.79 2253.3 2800.15 2254.52 2785.51 2254.52C2776.15 2254.52 2764.77 2253.71 2751.35 2252.08C2737.93 2250.05 2724.91 2247.61 2712.31 2244.76C2713.12 2252.89 2715.15 2260.82 2718.41 2268.55C2721.66 2276.28 2725.52 2282.17 2730 2286.24C2738.13 2293.97 2746.47 2298.85 2755.01 2300.88C2763.95 2302.91 2775.34 2303.93 2789.17 2303.93C2803.81 2303.93 2817.43 2301.49 2830.04 2296.61C2840.2 2292.95 2848.54 2291.12 2855.05 2291.12C2862.77 2291.12 2868.67 2293.56 2872.74 2298.44C2876.8 2302.91 2878.84 2308.81 2878.84 2316.13C2878.84 2326.3 2872.94 2334.63 2861.15 2341.14C2849.35 2347.65 2835.73 2352.53 2820.28 2355.78C2805.23 2358.63 2793.03 2360.05 2783.68 2360.05C2764.56 2360.05 2746.06 2356.59 2728.17 2349.68C2710.27 2342.77 2695.43 2333.01 2683.64 2320.4C2673.88 2309.01 2666.15 2295.39 2660.46 2279.53C2654.76 2263.26 2651.92 2245.98 2651.92 2227.68ZM2784.9 2145.33C2775.95 2145.33 2767 2147.16 2758.06 2150.82C2749.11 2154.07 2741.79 2158.75 2736.1 2164.85C2728.78 2172.58 2723.69 2178.88 2720.85 2183.76C2718.41 2188.23 2716.78 2194.54 2715.97 2202.67C2726.13 2205.92 2747.28 2207.55 2779.41 2207.55C2796.89 2207.55 2810.31 2204.91 2819.67 2199.62C2829.43 2194.33 2834.31 2187.42 2834.31 2178.88C2834.31 2170.34 2829.02 2162.61 2818.45 2155.7C2807.87 2148.79 2796.69 2145.33 2784.9 2145.33ZM3032.29 2332.6C3031.48 2339.51 3028.63 2345.61 3023.75 2350.9C3018.87 2356.19 3012.57 2358.83 3004.84 2358.83C2992.64 2358.83 2983.69 2356.59 2978 2352.12C2972.31 2347.24 2969.46 2338.5 2969.46 2325.89C2969.46 2308.81 2970.48 2290.1 2972.51 2269.77C2974.14 2246.18 2974.95 2228.09 2974.95 2215.48C2974.95 2208.97 2974.54 2200.84 2973.73 2191.08C2972.92 2182.13 2972.51 2175.42 2972.51 2170.95C2971.29 2164.04 2968.44 2158.55 2963.97 2154.48C2959.9 2150.41 2953.4 2146.96 2944.45 2144.11C2940.79 2142.48 2937.74 2139.84 2935.3 2136.18C2932.86 2132.11 2931.64 2128.45 2931.64 2125.2C2931.64 2115.85 2935.3 2108.73 2942.62 2103.85C2949.94 2098.97 2958.89 2096.53 2969.46 2096.53C2981.25 2096.53 2991.42 2100.6 2999.96 2108.73C3008.5 2116.86 3015.01 2127.03 3019.48 2139.23C3028.83 2125.81 3040.22 2115.03 3053.64 2106.9C3067.47 2098.77 3080.89 2094.7 3093.9 2094.7C3110.57 2094.7 3124.6 2097.55 3135.99 2103.24C3147.78 2108.53 3153.68 2117.88 3153.68 2131.3C3153.68 2139.03 3150.22 2147.16 3143.31 2155.7C3136.8 2163.83 3130.09 2167.9 3123.18 2167.9C3117.89 2167.9 3111.59 2165.46 3104.27 2160.58C3101.42 2158.55 3098.17 2156.92 3094.51 2155.7C3091.26 2154.07 3087.8 2153.26 3084.14 2153.26C3077.63 2153.26 3071.53 2154.28 3065.84 2156.31C3060.15 2158.34 3056.28 2160.78 3054.25 2163.63C3047.74 2173.8 3042.86 2182.95 3039.61 2191.08C3036.76 2199.21 3035.34 2207.96 3035.34 2217.31C3035.34 2224.22 3035.14 2229.71 3034.73 2233.78L3034.12 2268.55L3034.73 2291.73C3034.73 2308.81 3033.92 2322.43 3032.29 2332.6ZM3636.23 2018.45C3642.33 2025.77 3646.6 2031.67 3649.04 2036.14C3651.48 2040.61 3652.7 2044.88 3652.7 2048.95C3652.7 2053.83 3649.45 2059.52 3642.94 2066.03C3636.84 2072.54 3630.74 2075.79 3624.64 2075.79C3616.51 2075.79 3610 2074.57 3605.12 2072.13C3600.24 2069.69 3596.18 2065.83 3592.92 2060.54C3586.42 2050.78 3578.49 2042.44 3569.13 2035.53C3559.78 2028.21 3545.14 2024.55 3525.21 2024.55C3508.13 2024.55 3488.61 2028.41 3466.65 2036.14C3445.1 2043.87 3429.65 2053.42 3420.29 2064.81C3412.16 2074.98 3405.04 2090.43 3398.94 2111.17C3393.25 2131.91 3390.4 2152.04 3390.4 2171.56C3390.4 2195.15 3395.49 2216.9 3405.65 2236.83C3416.23 2256.35 3431.27 2272.01 3450.79 2283.8C3470.72 2295.59 3494.51 2301.49 3522.16 2301.49C3537.21 2301.49 3552.66 2298.64 3568.52 2292.95C3584.79 2286.85 3598.82 2277.09 3610.61 2263.67H3610C3617.32 2255.94 3626.47 2252.08 3637.45 2252.08C3643.96 2252.08 3650.06 2254.93 3655.75 2260.62C3661.85 2266.31 3664.9 2272.01 3664.9 2277.7C3664.9 2283.8 3663.89 2289.29 3661.85 2294.17C3660.23 2298.64 3656.97 2303.73 3652.09 2309.42C3635.42 2328.13 3615.7 2340.94 3592.92 2347.85C3570.15 2354.76 3542.9 2358.22 3511.18 2358.22C3483.12 2358.22 3454.66 2351.51 3425.78 2338.09C3397.32 2324.67 3375.36 2308.4 3359.9 2289.29C3351.77 2277.5 3343.84 2260.62 3336.11 2238.66C3328.79 2216.29 3325.13 2198.2 3325.13 2184.37C3325.13 2148.99 3330.42 2115.44 3340.99 2083.72C3351.97 2051.59 3368.24 2025.97 3389.79 2006.86C3404.03 1993.85 3424.56 1984.09 3451.4 1977.58C3478.24 1971.07 3502.85 1967.82 3525.21 1967.82C3552.46 1967.82 3573.81 1971.68 3589.26 1979.41C3605.12 1986.73 3620.78 1999.74 3636.23 2018.45ZM3959.28 2161.19C3962.53 2166.88 3965.17 2175.22 3967.21 2186.2C3969.24 2196.77 3970.26 2206.33 3970.26 2214.87C3970.26 2225.85 3969.04 2238.05 3966.6 2251.47C3964.16 2264.89 3961.92 2275.26 3959.89 2282.58C3931.83 2333.82 3890.35 2359.44 3835.45 2359.44C3815.11 2359.44 3794.37 2352.73 3773.23 2339.31C3752.08 2325.89 3737.44 2310.44 3729.31 2292.95C3718.33 2258.38 3712.84 2236.22 3712.84 2226.46C3712.84 2210.19 3716.29 2192.91 3723.21 2174.61C3730.53 2156.31 3739.68 2140.45 3750.66 2127.03C3757.98 2117.68 3770.58 2109.75 3788.48 2103.24C3806.37 2096.33 3822.64 2092.87 3837.28 2092.87C3865.74 2092.87 3889.74 2098.36 3909.26 2109.34C3929.18 2119.91 3945.86 2137.2 3959.28 2161.19ZM3906.21 2259.4C3908.24 2255.33 3909.26 2241.71 3909.26 2218.53C3909.26 2206.74 3907.02 2195.15 3902.55 2183.76C3898.48 2172.37 3892.38 2162.61 3884.25 2154.48C3883.43 2153.67 3881.2 2152.45 3877.54 2150.82C3873.88 2148.79 3868.79 2146.96 3862.29 2145.33C3856.19 2143.3 3849.07 2142.28 3840.94 2142.28C3818.16 2142.28 3801.49 2151.43 3790.92 2169.73C3780.34 2188.03 3775.06 2208.77 3775.06 2231.95C3775.06 2235.61 3776.28 2243.13 3778.72 2254.52C3781.16 2265.91 3782.99 2273.23 3784.21 2276.48C3787.46 2282.17 3793.97 2288.88 3803.73 2296.61C3813.89 2303.93 3824.87 2307.59 3836.67 2307.59C3854.97 2307.59 3869.4 2303.32 3879.98 2294.78C3890.96 2285.83 3899.7 2274.04 3906.21 2259.4ZM4306.86 2310.03C4308.9 2310.84 4312.15 2311.86 4316.62 2313.08C4321.1 2314.3 4324.35 2315.52 4326.38 2316.74C4328.42 2317.96 4329.43 2319.79 4329.43 2322.23C4329.84 2331.99 4326.18 2340.12 4318.45 2346.63C4311.13 2352.73 4302.39 2355.78 4292.22 2355.78C4276.36 2355.78 4263.96 2351.51 4255.01 2342.97C4246.07 2334.43 4239.56 2321.42 4235.49 2303.93C4233.87 2297.02 4233.05 2287.46 4233.05 2275.26C4233.05 2268.35 4233.46 2257.16 4234.27 2241.71C4235.09 2225.44 4235.49 2212.43 4235.49 2202.67C4235.49 2188.44 4231.43 2176.03 4223.29 2165.46C4215.57 2154.48 4204.59 2148.99 4190.35 2148.99C4181.81 2148.99 4172.87 2151.63 4163.51 2156.92C4154.16 2161.8 4147.65 2167.9 4143.99 2175.22C4137.89 2187.01 4133.62 2199.82 4131.18 2213.65C4126.71 2238.05 4124.47 2263.47 4124.47 2289.9C4124.47 2302.51 4124.68 2312.27 4125.08 2319.18C4125.08 2320.81 4125.08 2324.06 4125.08 2328.94C4125.49 2333.41 4125.08 2337.68 4123.86 2341.75C4123.05 2345.41 4121.42 2348.87 4118.98 2352.12C4116.95 2354.15 4113.7 2355.78 4109.22 2357C4105.16 2358.63 4101.29 2359.44 4097.63 2359.44C4091.94 2359.44 4084.82 2357 4076.28 2352.12C4067.74 2347.24 4062.86 2341.75 4061.64 2335.65L4061.03 2325.28C4061.03 2321.62 4061.44 2317.35 4062.25 2312.47C4067.13 2284 4069.57 2259.2 4069.57 2238.05C4069.57 2228.7 4069.37 2221.38 4068.96 2216.09L4068.35 2187.42C4068.35 2177.66 4065.91 2168.31 4061.03 2159.36C4056.15 2150.01 4050.46 2145.33 4043.95 2145.33C4041.92 2145.33 4039.07 2146.14 4035.41 2147.77C4031.75 2148.99 4028.7 2149.6 4026.26 2149.6C4022.2 2149.6 4017.72 2147.57 4012.84 2143.5C4008.37 2139.43 4006.13 2135.16 4006.13 2130.69C4006.13 2122.15 4008.98 2115.24 4014.67 2109.95C4020.77 2105.07 4026.67 2101.21 4032.36 2098.36C4038.46 2095.51 4045.38 2094.09 4053.1 2094.09C4059.61 2094.09 4064.9 2094.7 4068.96 2095.92C4073.03 2097.14 4078.52 2099.78 4085.43 2103.85C4089.09 2105.88 4093.36 2110.36 4098.24 2117.27C4103.12 2124.18 4107.19 2133.94 4110.44 2146.55C4121.02 2127.03 4134.03 2113.41 4149.48 2105.68C4165.34 2097.55 4185.47 2093.48 4209.87 2093.48C4219.23 2093.48 4229.19 2096.53 4239.76 2102.63C4250.74 2108.73 4260.1 2115.85 4267.82 2123.98C4275.14 2132.93 4281.24 2144.11 4286.12 2157.53C4291 2170.54 4293.44 2182.34 4293.44 2192.91C4293.44 2199.01 4293.04 2208.97 4292.22 2222.8C4291 2233.78 4290.39 2245.37 4290.39 2257.57C4290.39 2286.04 4295.88 2303.52 4306.86 2310.03ZM4544.41 2225.24C4547.67 2227.27 4553.97 2231.14 4563.32 2236.83C4573.08 2242.12 4579.59 2248.42 4582.84 2255.74C4586.1 2263.06 4587.72 2273.23 4587.72 2286.24C4587.72 2300.88 4583.45 2313.89 4574.91 2325.28C4566.37 2336.26 4555.39 2344.8 4541.97 2350.9C4532.62 2354.97 4522.45 2357.41 4511.47 2358.22C4500.9 2359.03 4488.09 2359.44 4473.04 2359.44C4464.91 2359.44 4454.34 2358.22 4441.32 2355.78C4428.72 2353.34 4419.97 2351.1 4415.09 2349.07C4402.08 2341.75 4391.1 2333.21 4382.15 2323.45C4373.21 2313.69 4368.73 2303.73 4368.73 2293.56C4368.73 2285.43 4371.38 2278.92 4376.66 2274.04C4381.95 2269.16 4388.86 2266.72 4397.4 2266.72C4401.88 2266.72 4406.15 2267.94 4410.21 2270.38C4414.69 2272.41 4417.74 2274.85 4419.36 2277.7C4423.84 2288.27 4431.36 2296.2 4441.93 2301.49C4452.51 2306.78 4463.28 2309.42 4474.26 2309.42C4512.9 2309.42 4532.21 2302.51 4532.21 2288.68C4532.21 2285.02 4531.2 2282.17 4529.16 2280.14C4527.54 2277.7 4525.1 2275.26 4521.84 2272.82C4516.56 2269.16 4509.03 2265.3 4499.27 2261.23C4489.92 2257.16 4481.58 2254.11 4474.26 2252.08C4457.59 2248.42 4441.32 2242.93 4425.46 2235.61C4410.82 2228.29 4398.83 2218.73 4389.47 2206.94C4380.12 2194.74 4375.44 2179.9 4375.44 2162.41C4375.44 2151.84 4379.31 2141.47 4387.03 2131.3C4395.17 2120.73 4404.52 2112.8 4415.09 2107.51C4422.41 2104.66 4434.41 2101.61 4451.08 2098.36C4467.76 2095.11 4479.14 2093.48 4485.24 2093.48C4494.6 2093.48 4504.76 2094.5 4515.74 2096.53C4526.72 2098.16 4535.06 2101 4540.75 2105.07C4551.73 2111.58 4560.68 2118.49 4567.59 2125.81C4574.51 2132.72 4577.96 2140.65 4577.96 2149.6C4577.96 2154.07 4576.95 2158.95 4574.91 2164.24C4572.88 2169.12 4570.44 2172.17 4567.59 2173.39C4561.49 2176.24 4554.38 2177.66 4546.24 2177.66C4542.58 2177.66 4539.53 2176.64 4537.09 2174.61C4535.06 2172.58 4532.21 2169.32 4528.55 2164.85C4524.08 2157.94 4519.81 2153.87 4515.74 2152.65C4510.86 2151.43 4503.75 2150.01 4494.39 2148.38C4485.04 2146.35 4478.74 2145.33 4475.48 2145.33C4465.32 2145.33 4455.56 2147.36 4446.2 2151.43C4437.26 2155.5 4432.78 2160.99 4432.78 2167.9C4432.78 2176.03 4439.49 2182.95 4452.91 2188.64C4461.45 2192.71 4470.81 2196.16 4480.97 2199.01C4491.55 2201.86 4498.05 2203.69 4500.49 2204.5C4506.19 2205.72 4513.51 2208.57 4522.45 2213.04C4531.81 2217.51 4539.13 2221.58 4544.41 2225.24ZM4646.47 2145.94C4640.78 2145.13 4636.1 2142.69 4632.44 2138.62C4629.19 2134.55 4627.56 2129.67 4627.56 2123.98C4627.56 2121.13 4628.17 2118.08 4629.39 2114.83C4631.02 2111.58 4633.26 2108.73 4636.1 2106.29C4641.39 2101.82 4648.51 2097.55 4657.45 2093.48C4666.81 2089.82 4673.52 2085.35 4677.58 2080.06C4681.65 2074.77 4683.68 2064.81 4683.68 2050.17C4683.68 2044.07 4683.28 2038.78 4682.46 2034.31C4682.06 2029.84 4681.85 2026.38 4681.85 2023.94C4681.85 2014.99 4685.11 2008.28 4691.61 2003.81C4698.12 1999.34 4705.64 1997.1 4714.18 1997.1C4724.76 1997.1 4731.87 1999.74 4735.53 2005.03C4739.6 2010.32 4741.63 2020.08 4741.63 2034.31C4741.63 2048.14 4741.02 2060.13 4739.8 2070.3C4738.58 2080.06 4735.94 2088.8 4731.87 2096.53C4737.57 2096.53 4746.92 2096.12 4759.93 2095.31C4777.83 2094.5 4790.23 2094.09 4797.14 2094.09C4804.06 2094.09 4810.16 2095.92 4815.44 2099.58C4820.73 2102.83 4823.37 2107.51 4823.37 2113.61C4823.37 2122.15 4821.54 2128.45 4817.88 2132.52C4814.22 2136.59 4808.94 2139.23 4802.02 2140.45C4785.35 2144.92 4761.76 2147.57 4731.26 2148.38C4730.45 2164.24 4730.04 2181.52 4730.04 2200.23C4730.04 2231.54 4731.87 2255.54 4735.53 2272.21C4737.97 2285.22 4742.04 2294.78 4747.73 2300.88C4753.83 2306.57 4762.78 2309.42 4774.57 2309.42C4780.67 2309.42 4785.55 2308.61 4789.21 2306.98C4793.28 2305.35 4795.52 2304.34 4795.92 2303.93C4800.8 2301.08 4805.28 2299.66 4809.34 2299.66C4815.04 2299.66 4819.1 2301.49 4821.54 2305.15C4824.39 2308.81 4825.81 2313.69 4825.81 2319.79C4825.81 2331.18 4819.71 2340.73 4807.51 2348.46C4795.31 2355.78 4779.66 2359.44 4760.54 2359.44C4738.99 2359.44 4720.69 2353.14 4705.64 2340.53C4691 2327.52 4682.26 2310.44 4679.41 2289.29C4675.35 2270.18 4673.31 2243.34 4673.31 2208.77C4673.31 2193.72 4674.13 2173.59 4675.75 2148.38L4646.47 2145.94ZM4964.88 2332.6C4964.88 2339.51 4962.24 2345.61 4956.95 2350.9C4951.66 2356.19 4945.16 2358.83 4937.43 2358.83C4925.23 2358.83 4916.28 2356.59 4910.59 2352.12C4904.9 2347.24 4902.05 2338.5 4902.05 2325.89C4902.05 2310.84 4901.64 2291.12 4900.83 2266.72C4900.02 2246.39 4899.61 2229.31 4899.61 2215.48C4899.61 2208.97 4900.02 2200.43 4900.83 2189.86C4901.64 2180.1 4902.05 2172.78 4902.05 2167.9C4900.83 2160.17 4897.78 2153.87 4892.9 2148.99C4888.02 2143.7 4881.72 2141.06 4873.99 2141.06C4870.33 2141.06 4867.28 2139.43 4864.84 2136.18C4862.4 2132.52 4861.18 2128.86 4861.18 2125.2C4861.18 2115.85 4864.84 2108.73 4872.16 2103.85C4879.89 2098.97 4889.04 2096.53 4899.61 2096.53C4921.57 2096.53 4936.82 2109.54 4945.36 2135.57C4955.93 2123.37 4967.93 2113.61 4981.35 2106.29C4995.18 2098.56 5008.39 2094.7 5021 2094.7C5036.05 2094.7 5049.67 2098.77 5061.87 2106.9C5074.48 2115.03 5080.78 2126.01 5080.78 2139.84C5080.78 2147.57 5077.32 2155.5 5070.41 2163.63C5063.9 2171.76 5057.19 2175.83 5050.28 2175.83C5046.62 2175.83 5043.37 2175.02 5040.52 2173.39C5038.08 2171.36 5035.03 2168.51 5031.37 2164.85C5027.3 2160.78 5023.85 2157.94 5021 2156.31C5018.15 2154.28 5014.9 2153.26 5011.24 2153.26C5004.73 2153.26 4998.63 2154.28 4992.94 2156.31C4987.25 2158.34 4983.38 2160.78 4981.35 2163.63C4974.84 2173.8 4969.96 2182.95 4966.71 2191.08C4963.86 2199.21 4962.44 2207.96 4962.44 2217.31C4962.44 2224.22 4962.24 2229.71 4961.83 2233.78L4961.22 2268.55C4961.22 2273.84 4961.42 2279.73 4961.83 2286.24C4962.24 2292.75 4962.64 2297.63 4963.05 2300.88C4964.27 2311.86 4964.88 2322.43 4964.88 2332.6ZM5110.34 2151.43C5107.09 2151.43 5104.24 2150.21 5101.8 2147.77C5099.36 2144.92 5098.14 2141.67 5098.14 2138.01C5098.14 2126.22 5102.01 2117.27 5109.73 2111.17C5117.46 2104.66 5127.02 2101.41 5138.4 2101.41C5154.26 2101.41 5167.89 2105.68 5179.27 2114.22C5191.07 2122.35 5196.96 2134.15 5196.96 2149.6C5196.96 2153.67 5196.15 2169.12 5194.52 2195.96C5192.9 2226.87 5192.08 2247.4 5192.08 2257.57C5192.08 2271.8 5194.73 2283.39 5200.01 2292.34C5205.71 2300.88 5214.45 2305.15 5226.24 2305.15C5249.02 2305.15 5266.5 2292.54 5278.7 2267.33C5291.31 2241.71 5299.65 2210.4 5303.71 2173.39C5305.34 2157.12 5307.78 2140.04 5311.03 2122.15C5312.66 2112.39 5314.9 2105.27 5317.74 2100.8C5320.59 2096.33 5326.08 2094.09 5334.21 2094.09C5339.5 2094.09 5345.6 2095.31 5352.51 2097.75C5359.83 2100.19 5364.51 2103.44 5366.54 2107.51C5368.98 2113.61 5370.2 2120.32 5370.2 2127.64C5370.2 2137.81 5368.78 2151.02 5365.93 2167.29C5362.68 2183.56 5360.44 2201.25 5359.22 2220.36C5358.41 2237.44 5361.05 2255.33 5367.15 2274.04C5373.25 2292.75 5382 2304.95 5393.38 2310.64C5406.4 2317.15 5412.9 2323.04 5412.9 2328.33C5412.9 2336.87 5409.85 2343.58 5403.75 2348.46C5397.65 2353.34 5391.76 2355.78 5386.06 2355.78C5371.02 2355.78 5357.39 2350.29 5345.19 2339.31C5333.4 2328.33 5324.86 2314.71 5319.57 2298.44C5311.03 2311.45 5302.7 2322.23 5294.56 2330.77C5286.84 2338.9 5276.87 2345.82 5264.67 2351.51C5252.47 2356.8 5237.43 2359.44 5219.53 2359.44C5198.39 2359.44 5179.07 2351.92 5161.58 2336.87C5144.5 2321.82 5135.96 2296 5135.96 2259.4C5135.96 2249.23 5136.17 2238.46 5136.57 2227.07C5137.39 2215.68 5137.79 2207.55 5137.79 2202.67C5139.01 2188.03 5139.62 2174.61 5139.62 2162.41C5139.62 2158.75 5138.2 2155.7 5135.35 2153.26C5132.91 2150.82 5130.07 2149.6 5126.81 2149.6C5124.37 2149.6 5121.53 2150.01 5118.27 2150.82C5115.43 2151.23 5112.78 2151.43 5110.34 2151.43ZM5645.72 2172.17C5639.62 2172.17 5634.33 2170.75 5629.86 2167.9C5625.79 2164.65 5621.52 2160.38 5617.05 2155.09C5612.57 2149.8 5607.69 2146.35 5602.41 2144.72C5597.53 2143.09 5591.83 2142.28 5585.33 2142.28C5573.53 2142.28 5561.94 2145.94 5550.56 2153.26C5539.58 2160.17 5530.43 2169.93 5523.11 2182.54C5516.19 2195.15 5512.74 2209.18 5512.74 2224.63C5512.74 2241.71 5515.99 2255.94 5522.5 2267.33C5529.41 2278.72 5540.19 2288.68 5554.83 2297.22C5560.11 2300.07 5566.21 2302.3 5573.13 2303.93C5580.45 2305.56 5586.75 2306.37 5592.04 2306.37C5604.64 2306.37 5620.91 2300.88 5640.84 2289.9C5642.46 2289.09 5645.51 2287.66 5649.99 2285.63C5654.87 2283.19 5658.53 2281.97 5660.97 2281.97C5665.44 2281.97 5670.52 2284.21 5676.22 2288.68C5681.91 2292.75 5684.76 2297.83 5684.76 2303.93C5684.76 2316.13 5679.47 2326.5 5668.9 2335.04C5658.73 2343.58 5645.92 2349.88 5630.47 2353.95C5615.01 2358.02 5599.76 2360.05 5584.72 2360.05C5560.72 2360.05 5538.36 2354.56 5517.62 2343.58C5496.88 2332.6 5480.41 2317.35 5468.21 2297.83C5456.01 2278.31 5449.91 2256.35 5449.91 2231.95C5449.91 2205.52 5455.8 2181.73 5467.6 2160.58C5479.39 2139.03 5495.25 2122.15 5515.18 2109.95C5535.51 2097.34 5557.47 2091.04 5581.06 2091.04C5603.83 2091.04 5624.77 2095.51 5643.89 2104.46C5663.41 2113.41 5673.17 2127.03 5673.17 2145.33C5673.17 2163.22 5664.02 2172.17 5645.72 2172.17ZM5734.82 2145.94C5729.13 2145.13 5724.45 2142.69 5720.79 2138.62C5717.54 2134.55 5715.91 2129.67 5715.91 2123.98C5715.91 2121.13 5716.52 2118.08 5717.74 2114.83C5719.37 2111.58 5721.61 2108.73 5724.45 2106.29C5729.74 2101.82 5736.86 2097.55 5745.8 2093.48C5755.16 2089.82 5761.87 2085.35 5765.93 2080.06C5770 2074.77 5772.03 2064.81 5772.03 2050.17C5772.03 2044.07 5771.63 2038.78 5770.81 2034.31C5770.41 2029.84 5770.2 2026.38 5770.2 2023.94C5770.2 2014.99 5773.46 2008.28 5779.96 2003.81C5786.47 1999.34 5793.99 1997.1 5802.53 1997.1C5813.11 1997.1 5820.22 1999.74 5823.88 2005.03C5827.95 2010.32 5829.98 2020.08 5829.98 2034.31C5829.98 2048.14 5829.37 2060.13 5828.15 2070.3C5826.93 2080.06 5824.29 2088.8 5820.22 2096.53C5825.92 2096.53 5835.27 2096.12 5848.28 2095.31C5866.18 2094.5 5878.58 2094.09 5885.49 2094.09C5892.41 2094.09 5898.51 2095.92 5903.79 2099.58C5909.08 2102.83 5911.72 2107.51 5911.72 2113.61C5911.72 2122.15 5909.89 2128.45 5906.23 2132.52C5902.57 2136.59 5897.29 2139.23 5890.37 2140.45C5873.7 2144.92 5850.11 2147.57 5819.61 2148.38C5818.8 2164.24 5818.39 2181.52 5818.39 2200.23C5818.39 2231.54 5820.22 2255.54 5823.88 2272.21C5826.32 2285.22 5830.39 2294.78 5836.08 2300.88C5842.18 2306.57 5851.13 2309.42 5862.92 2309.42C5869.02 2309.42 5873.9 2308.61 5877.56 2306.98C5881.63 2305.35 5883.87 2304.34 5884.27 2303.93C5889.15 2301.08 5893.63 2299.66 5897.69 2299.66C5903.39 2299.66 5907.45 2301.49 5909.89 2305.15C5912.74 2308.81 5914.16 2313.69 5914.16 2319.79C5914.16 2331.18 5908.06 2340.73 5895.86 2348.46C5883.66 2355.78 5868.01 2359.44 5848.89 2359.44C5827.34 2359.44 5809.04 2353.14 5793.99 2340.53C5779.35 2327.52 5770.61 2310.44 5767.76 2289.29C5763.7 2270.18 5761.66 2243.34 5761.66 2208.77C5761.66 2193.72 5762.48 2173.59 5764.1 2148.38L5734.82 2145.94ZM5994.06 1965.38C6008.29 1966.6 6020.7 1970.46 6031.27 1976.97C6041.84 1983.07 6047.13 1992.42 6047.13 2005.03C6047.13 2014.38 6042.66 2021.91 6033.71 2027.6C6025.17 2032.89 6014.8 2035.53 6002.6 2035.53C5990.81 2035.53 5982.67 2032.48 5978.2 2026.38C5973.73 2020.28 5971.49 2013.98 5971.49 2007.47C5971.49 1995.27 5972.71 1985.1 5975.15 1976.97C5978 1968.84 5984.3 1964.97 5994.06 1965.38ZM6042.86 2235.61V2253.3C6042.86 2269.16 6043.27 2284.21 6044.08 2298.44C6045.3 2312.27 6046.72 2326.3 6048.35 2340.53C6047.94 2344.6 6044.89 2348.87 6039.2 2353.34C6033.51 2357.41 6028.42 2359.44 6023.95 2359.44C6016.22 2359.44 6008.29 2358.02 6000.16 2355.17C5992.43 2351.92 5987.76 2348.05 5986.13 2343.58C5983.69 2330.57 5982.47 2318.98 5982.47 2308.81C5982.47 2275.46 5981.45 2238.05 5979.42 2196.57C5977.79 2159.97 5976.98 2134.35 5976.98 2119.71C5976.98 2112.39 5980.64 2106.09 5987.96 2100.8C5995.28 2095.51 6003.01 2092.87 6011.14 2092.87C6022.93 2092.87 6031.07 2095.51 6035.54 2100.8C6040.42 2106.09 6042.86 2114.42 6042.86 2125.81V2235.61ZM6359.36 2161.19C6362.62 2166.88 6365.26 2175.22 6367.29 2186.2C6369.33 2196.77 6370.34 2206.33 6370.34 2214.87C6370.34 2225.85 6369.12 2238.05 6366.68 2251.47C6364.24 2264.89 6362.01 2275.26 6359.97 2282.58C6331.91 2333.82 6290.43 2359.44 6235.53 2359.44C6215.2 2359.44 6194.46 2352.73 6173.31 2339.31C6152.17 2325.89 6137.53 2310.44 6129.39 2292.95C6118.41 2258.38 6112.92 2236.22 6112.92 2226.46C6112.92 2210.19 6116.38 2192.91 6123.29 2174.61C6130.61 2156.31 6139.76 2140.45 6150.74 2127.03C6158.06 2117.68 6170.67 2109.75 6188.56 2103.24C6206.46 2096.33 6222.72 2092.87 6237.36 2092.87C6265.83 2092.87 6289.82 2098.36 6309.34 2109.34C6329.27 2119.91 6345.94 2137.2 6359.36 2161.19ZM6306.29 2259.4C6308.33 2255.33 6309.34 2241.71 6309.34 2218.53C6309.34 2206.74 6307.11 2195.15 6302.63 2183.76C6298.57 2172.37 6292.47 2162.61 6284.33 2154.48C6283.52 2153.67 6281.28 2152.45 6277.62 2150.82C6273.96 2148.79 6268.88 2146.96 6262.37 2145.33C6256.27 2143.3 6249.16 2142.28 6241.02 2142.28C6218.25 2142.28 6201.58 2151.43 6191 2169.73C6180.43 2188.03 6175.14 2208.77 6175.14 2231.95C6175.14 2235.61 6176.36 2243.13 6178.8 2254.52C6181.24 2265.91 6183.07 2273.23 6184.29 2276.48C6187.55 2282.17 6194.05 2288.88 6203.81 2296.61C6213.98 2303.93 6224.96 2307.59 6236.75 2307.59C6255.05 2307.59 6269.49 2303.32 6280.06 2294.78C6291.04 2285.83 6299.79 2274.04 6306.29 2259.4ZM6706.95 2310.03C6708.98 2310.84 6712.24 2311.86 6716.71 2313.08C6721.18 2314.3 6724.44 2315.52 6726.47 2316.74C6728.5 2317.96 6729.52 2319.79 6729.52 2322.23C6729.93 2331.99 6726.27 2340.12 6718.54 2346.63C6711.22 2352.73 6702.48 2355.78 6692.31 2355.78C6676.45 2355.78 6664.05 2351.51 6655.1 2342.97C6646.15 2334.43 6639.65 2321.42 6635.58 2303.93C6633.95 2297.02 6633.14 2287.46 6633.14 2275.26C6633.14 2268.35 6633.55 2257.16 6634.36 2241.71C6635.17 2225.44 6635.58 2212.43 6635.58 2202.67C6635.58 2188.44 6631.51 2176.03 6623.38 2165.46C6615.65 2154.48 6604.67 2148.99 6590.44 2148.99C6581.9 2148.99 6572.95 2151.63 6563.6 2156.92C6554.25 2161.8 6547.74 2167.9 6544.08 2175.22C6537.98 2187.01 6533.71 2199.82 6531.27 2213.65C6526.8 2238.05 6524.56 2263.47 6524.56 2289.9C6524.56 2302.51 6524.76 2312.27 6525.17 2319.18C6525.17 2320.81 6525.17 2324.06 6525.17 2328.94C6525.58 2333.41 6525.17 2337.68 6523.95 2341.75C6523.14 2345.41 6521.51 2348.87 6519.07 2352.12C6517.04 2354.15 6513.78 2355.78 6509.31 2357C6505.24 2358.63 6501.38 2359.44 6497.72 2359.44C6492.03 2359.44 6484.91 2357 6476.37 2352.12C6467.83 2347.24 6462.95 2341.75 6461.73 2335.65L6461.12 2325.28C6461.12 2321.62 6461.53 2317.35 6462.34 2312.47C6467.22 2284 6469.66 2259.2 6469.66 2238.05C6469.66 2228.7 6469.46 2221.38 6469.05 2216.09L6468.44 2187.42C6468.44 2177.66 6466 2168.31 6461.12 2159.36C6456.24 2150.01 6450.55 2145.33 6444.04 2145.33C6442.01 2145.33 6439.16 2146.14 6435.5 2147.77C6431.84 2148.99 6428.79 2149.6 6426.35 2149.6C6422.28 2149.6 6417.81 2147.57 6412.93 2143.5C6408.46 2139.43 6406.22 2135.16 6406.22 2130.69C6406.22 2122.15 6409.07 2115.24 6414.76 2109.95C6420.86 2105.07 6426.76 2101.21 6432.45 2098.36C6438.55 2095.51 6445.46 2094.09 6453.19 2094.09C6459.7 2094.09 6464.98 2094.7 6469.05 2095.92C6473.12 2097.14 6478.61 2099.78 6485.52 2103.85C6489.18 2105.88 6493.45 2110.36 6498.33 2117.27C6503.21 2124.18 6507.28 2133.94 6510.53 2146.55C6521.1 2127.03 6534.12 2113.41 6549.57 2105.68C6565.43 2097.55 6585.56 2093.48 6609.96 2093.48C6619.31 2093.48 6629.28 2096.53 6639.85 2102.63C6650.83 2108.73 6660.18 2115.85 6667.91 2123.98C6675.23 2132.93 6681.33 2144.11 6686.21 2157.53C6691.09 2170.54 6693.53 2182.34 6693.53 2192.91C6693.53 2199.01 6693.12 2208.97 6692.31 2222.8C6691.09 2233.78 6690.48 2245.37 6690.48 2257.57C6690.48 2286.04 6695.97 2303.52 6706.95 2310.03Z" fill="#7E57C2"/>
</svg>
